<svg xmlns="http://www.w3.org/2000/svg" width="80" height="80" viewBox="0 0 80 80">
    <g fill="none" fill-rule="evenodd" stroke="#43C9F0" stroke-width="2">
        <path d="M60.304 46.865c-1.752-.453-3.043-2.07-3.043-3.986 0-1.917 1.291-3.533 3.043-3.986v-1.657c-1.752-.453-3.043-2.07-3.043-3.986 0-1.916 1.291-3.532 3.043-3.985V28.21c-1.752-.453-3.043-2.069-3.043-3.985 0-1.917 1.291-3.533 3.043-3.986V19H6v1.239c1.752.453 3.043 2.069 3.043 3.986 0 1.916-1.29 3.532-3.043 3.985v1.055c1.752.453 3.043 2.069 3.043 3.985 0 1.917-1.29 3.533-3.043 3.986v1.657c1.752.453 3.043 2.07 3.043 3.986 0 1.916-1.29 3.533-3.043 3.986v.48h54.304v-.48z"/>
        <path d="M61.75 24.828h6.402v3.112c-1.68 0-3.043 1.393-3.043 3.112s1.362 3.112 3.043 3.112v2.802c-1.68 0-3.043 1.393-3.043 3.112s1.362 3.112 3.043 3.112v3.404c-1.68 0-3.043 1.394-3.043 3.112 0 1.72 1.362 3.113 3.043 3.113v2.353H11.848V52.82c1.68 0 3.043-1.394 3.043-3.113"/>
        <path d="M71.957 37.88c0 1.719 1.362 3.112 3.043 3.112v2.801c-1.68 0-3.043 1.394-3.043 3.112 0 1.72 1.362 3.113 3.043 3.113v3.404c-1.68 0-3.043 1.393-3.043 3.112s1.362 3.112 3.043 3.112V62H44.565"/>
        <path stroke-linecap="round" stroke-linejoin="round" d="M28.587 32.581l4.172 5.143L40 28.621"/>
    </g>
</svg>
