<svg xmlns="http://www.w3.org/2000/svg" width="80" height="80" viewBox="0 0 80 80">
    <g fill="none" fill-rule="evenodd" stroke="#43C9F0" stroke-linecap="round" stroke-linejoin="round" stroke-width="2">
        <path d="M25.69 34.822V17.987C25.69 14.68 28.35 12 31.63 12H62.53c3.282 0 5.942 2.68 5.942 5.987v36.851"/>
        <path d="M68.48 21.461c2.591.619 4.52 2.986 4.52 5.812v27.849c0 3.297-2.625 5.969-5.862 5.969H37.604M34.799 12h4.243a7.75 7.75 0 0 0-.047.848c0 4.218 3.406 7.637 7.608 7.637 4.2 0 7.607-3.42 7.607-7.637 0-.286-.016-.57-.047-.848h4.243c.02.28.03.563.03.848 0 6.561-5.298 11.88-11.833 11.88-6.536 0-11.834-5.319-11.834-11.88 0-.285.01-.568.03-.848z"/>
        <g transform="rotate(-25 66.777 7.998)">
            <path d="M16.178 11.384c1.268 1.484 2.027 3.375 2.027 5.434 0 .153-.004.304-.012.455h.012v24.545h-.026c-.358 3.051-4.285 5.455-9.076 5.455-4.792 0-8.719-2.404-9.076-5.455H0V17.273h.012A8.329 8.329 0 0 1 0 16.818c0-2.115.801-4.052 2.131-5.553"/>
            <path d="M14.474 38.41c-1.505-.715-3.362-1.137-5.371-1.137-2.003 0-3.855.42-5.358 1.131M16.385 3.636V10c0 2.51-3.26 4.545-7.282 4.545S1.82 12.51 1.82 10V3.636"/>
            <ellipse cx="9.103" cy="4.545" rx="7.282" ry="4.545"/>
        </g>
    </g>
</svg>
