<svg xmlns="http://www.w3.org/2000/svg" width="80" height="80" viewBox="0 0 80 80">
    <g fill="none" fill-rule="evenodd" transform="translate(11 1)">
        <path stroke="#43C9F0" stroke-width="2" d="M32.885 26h22.516A3.59 3.59 0 0 1 59 29.58v43.84A3.59 3.59 0 0 1 55.401 77H3.6A3.59 3.59 0 0 1 0 73.42V29.58A3.59 3.59 0 0 1 3.599 26h22.516"/>
        <rect width="51" height="36" x="4" y="37" stroke="#43C9F0" stroke-width="2" rx=".93"/>
        <path stroke="#43C9F0" stroke-width="2" d="M27 22v6.5a2.5 2.5 0 1 0 5 0V22h-5z"/>
        <path stroke="#43C9F0" stroke-width="2" d="M27 22v6.5a2.5 2.5 0 1 0 5 0V22h-5z"/>
        <path stroke="#43C9F0" stroke-linecap="round" stroke-linejoin="round" stroke-width="2" d="M44.568 2.011L36.004 26m-4.218-4.002l7.133-19.981M14.067.99L22.996 26m4.218-4.002L19.71.978"/>
        <path fill="#43C9F0" fill-rule="nonzero" d="M13.368 60.196a5.52 5.52 0 0 1-3.78-1.512l1.19-1.428c.742.686 1.722 1.148 2.632 1.148 1.078 0 1.652-.462 1.652-1.19 0-.77-.63-1.008-1.554-1.4l-1.386-.588c-1.05-.434-2.1-1.274-2.1-2.786 0-1.694 1.484-2.996 3.584-2.996 1.204 0 2.408.476 3.248 1.33l-1.05 1.302c-.658-.546-1.344-.854-2.198-.854-.91 0-1.498.406-1.498 1.092 0 .742.742 1.008 1.624 1.358l1.358.574c1.26.518 2.086 1.316 2.086 2.814 0 1.694-1.414 3.136-3.808 3.136zM20.466 60v-8.638h-2.912V49.64h7.924v1.722h-2.94V60h-2.072zm7.728-4.27h2.464l-.308-1.134c-.322-1.078-.602-2.268-.91-3.388h-.056a74.62 74.62 0 0 1-.882 3.388l-.308 1.134zm3.64 4.27l-.728-2.66h-3.36L27.018 60h-2.1l3.318-10.36h2.436L34.004 60h-2.17zm3.108 0V49.64h6.384v1.722h-4.312v2.702h3.682V55.8h-3.682V60h-2.072zm7.91 0V49.64h6.384v1.722h-4.312v2.702h3.682V55.8h-3.682V60h-2.072z"/>
    </g>
</svg>
