<svg xmlns="http://www.w3.org/2000/svg" width="80" height="80" viewBox="0 0 80 80">
    <g fill="none" fill-rule="evenodd">
        <path fill="#43C9F0" fill-rule="nonzero" d="M32.973 59.6h2V66H72V14H34.973v8.267h-2V12H74v56H32.973v-8.4z"/>
        <path stroke="#43C9F0" stroke-linecap="round" stroke-linejoin="round" stroke-width="2" d="M52.554 34.4l6.527 6.533-6.527 6.534"/>
        <path fill="#FFF" stroke="#43C9F0" stroke-linecap="round" stroke-linejoin="round" stroke-width="2" d="M57.83 41.4H36.702"/>
        <path stroke="#43C9F0" stroke-width="2" d="M38.948 49.267l.276.276-.23.23a2.804 2.804 0 0 1-.494-.136v-.37h.448zm-1.127 0a2.929 2.929 0 0 1-1.186-2.363c0-1.248.773-2.319 1.865-2.732v-.459a2.915 2.915 0 0 1-1.865-2.732c0-1.248.773-2.319 1.865-2.732v-.088a2.915 2.915 0 0 1-1.865-2.732c0-1.248.773-2.319 1.865-2.732V32.6H6v.097a2.915 2.915 0 0 1 1.865 2.732A2.915 2.915 0 0 1 6 38.161v.088a2.915 2.915 0 0 1 1.865 2.732A2.915 2.915 0 0 1 6 43.713v.459a2.915 2.915 0 0 1 1.865 2.732c0 .97-.467 1.832-1.186 2.363H37.82zm.803-11.062c.196-.064.4-.106.611-.126l.127.126-.127.126a2.81 2.81 0 0 1-.61-.126zm.184-5.605c.195-.05.399-.078.608-.084l.041.041-.042.043h-.607zm-33.116 0h-.607l-.042-.043.041-.041c.21.006.413.035.608.084zm.184 5.605a2.81 2.81 0 0 1-.611.126l-.127-.126.127-.126c.211.02.415.062.61.126zM6 49.637c-.158.06-.323.106-.493.136l-.23-.23.275-.276H6v.37z"/>
    </g>
</svg>
