<svg xmlns="http://www.w3.org/2000/svg" width="80" height="80" viewBox="0 0 80 80">
    <g fill="none" fill-rule="evenodd" stroke="#43C9F0" transform="translate(6 -5)">
        <path stroke-width="2" d="M26.698 17.299l2.885 1.345a3.5 3.5 0 0 1-2.958 6.344l-6.983-3.256a28.156 28.156 0 0 0-3.805 3.834l8.746 4.078a3.5 3.5 0 0 1-2.958 6.344L11.463 31.25a36.755 36.755 0 0 0-2.472 4.455l10.592 4.94a3.5 3.5 0 0 1-2.958 6.343L6.783 42.4c-1.223 6.42.49 11.695 4.76 14.372 3.79 2.226 8.516 2.38 15.277.746l.868-.21.306.839c1.911 5.23 5.926 9.55 10.32 11.112 4.968 1.606 10.277-.652 14.46-6.039L42.39 58.377a3 3 0 1 1 2.536-5.438l11.008 5.133a36.803 36.803 0 0 0 2.175-5.697L47.39 47.377a3 3 0 1 1 2.536-5.438l9.476 4.419.012-.079c.425-2.073.61-4.196.554-6.369l-7.578-3.533a3 3 0 0 1 2.536-5.438l4.051 1.89c-1.587-6.39-5.066-13.188-10.448-20.391-8.723.493-16 2.117-21.831 4.86z"/>
        <rect width="1" height="70.439" x="32.901" y="9.83" fill="#FFF" stroke-width="1.561" rx=".5" transform="rotate(25 33.12 45.05)"/>
    </g>
</svg>
