<svg xmlns="http://www.w3.org/2000/svg" width="80" height="80" viewBox="0 0 80 80">
    <g fill="none" fill-rule="evenodd" stroke="#43C9F0" stroke-linecap="round" stroke-linejoin="round" stroke-width="2" transform="translate(9 13)">
        <path d="M31.101 24.827l-3.853 1.894a1.588 1.588 0 0 1-2.273-1.655l.618-4.225-2.988-3.05a1.588 1.588 0 0 1 .868-2.678l4.224-.72 2-3.79a1.588 1.588 0 0 1 2.809 0l2 3.79 4.224.72a1.588 1.588 0 0 1 .868 2.677l-2.988 3.051.617 4.225a1.588 1.588 0 0 1-2.272 1.655L31.1 24.827zM51.09 34.095l-1.804-.609a1.191 1.191 0 0 1-.33-2.085l1.525-1.133.024-1.903a1.191 1.191 0 0 1 1.878-.958l1.565 1.102 1.828-.566a1.191 1.191 0 0 1 1.49 1.493l-.567 1.813 1.1 1.547a1.191 1.191 0 0 1-.956 1.881l-1.91.024-1.147 1.531a1.191 1.191 0 0 1-2.081-.33l-.615-1.807z"/>
        <ellipse cx="42.266" cy="4.765" rx="4.785" ry="4.765"/>
        <ellipse cx="55.823" cy="48.441" rx="2.625" ry="2.613"/>
        <ellipse cx="4.785" cy="13.5" rx="3.19" ry="3.176"/>
        <path d="M52.633 6.353c2.041 0 4.785-3.265 4.785-5.559 0 2.294 2.743 5.559 4.785 5.559-2.042 0-4.785 3.265-4.785 5.559 0-2.294-2.744-5.56-4.785-5.56zM15.152 6.353c2.041 0 4.785-3.265 4.785-5.559 0 2.294 2.743 5.559 4.785 5.559-2.042 0-4.785 3.265-4.785 5.559 0-2.294-2.744-5.56-4.785-5.56zM0 36.53c2.041 0 4.785-3.265 4.785-5.56 0 2.295 2.743 5.56 4.785 5.56-2.042 0-4.785 3.264-4.785 5.558 0-2.294-2.744-5.559-4.785-5.559zM31.101 34.147v19.059M37.481 53.373c1.456-18.111 6.448-30.446 14.977-37.003M44.408 53.373c.466-4.79 3.15-8.682 8.05-11.677M24.722 53.373C23.266 35.262 18.273 22.927 9.744 16.37M17.794 53.373c-.465-4.79-3.149-8.682-8.05-11.677"/>
    </g>
</svg>
