<svg xmlns="http://www.w3.org/2000/svg" width="80" height="80" viewBox="0 0 80 80">
    <g fill="none" fill-rule="evenodd">
        <path stroke="#43C9F0" stroke-width="2" d="M76 57.795c-2.286-.473-4-2.536-4-5s1.714-4.528 4-5v-2.692c-2.286-.473-4-2.536-4-5 0-2.465 1.714-4.528 4-5.001v-1.896c-2.286-.473-4-2.537-4-5 0-2.465 1.714-4.528 4-5.001V21H4v2.205c2.286.473 4 2.536 4 5s-1.714 4.528-4 5v1.897c2.286.473 4 2.536 4 5 0 2.465-1.714 4.528-4 5.001v2.691c2.286.473 4 2.537 4 5 0 2.465-1.714 4.528-4 5.001V59h72v-1.205z"/>
        <path fill="#43C9F0" fill-rule="nonzero" d="M21.094 45v-8.021H18.39V35.38h7.358v1.599h-2.73V45h-1.924zm5.914 0v-9.62h1.924V45h-1.924zm7.916.182c-2.431 0-4.407-1.742-4.407-4.953 0-3.172 2.041-5.031 4.472-5.031 1.222 0 2.197.585 2.821 1.235l-1.014 1.222c-.481-.468-1.04-.806-1.768-.806-1.456 0-2.548 1.248-2.548 3.315 0 2.093.988 3.354 2.509 3.354.819 0 1.469-.39 1.989-.949l1.014 1.196c-.793.923-1.82 1.417-3.068 1.417zM39.239 45v-9.62h1.924v4.173h.039l3.185-4.173h2.119l-2.938 3.783L47.026 45h-2.119l-2.483-4.316-1.261 1.612V45h-1.924zm8.618 0v-9.62h5.902v1.599h-3.978v2.223h3.38v1.612h-3.38v2.574h4.121V45h-6.045zm9.606 0v-8.021h-2.704V35.38h7.358v1.599h-2.73V45h-1.924z"/>
    </g>
</svg>
