<svg xmlns="http://www.w3.org/2000/svg" width="80" height="80" viewBox="0 0 80 80">
    <path fill="#43C9F0" fill-rule="evenodd" d="M15 18v18h3v8h-3v18h3v3h18v-3h8v3h18v-3h3V44h-3v-8h3V18h-3v-3H44v3h-8v-3H18v3h-3zm-2 18V18h-3v-8h8v3h18v-3h8v3h18v-3h8v8h-3v18h3v8h-3v18h3v8h-8v-3H44v3h-8v-3H18v3h-8v-8h3V44h-3v-8h3zm-1-24v4h4v-4h-4zm0 52v4h4v-4h-4zm0-26v4h4v-4h-4zm52-26v4h4v-4h-4zm-26 0v4h4v-4h-4zm0 52v4h4v-4h-4zm26 0v4h4v-4h-4zm0-26v4h4v-4h-4zm-23 1h3a1 1 0 0 1 0 2h-3v3a1 1 0 0 1-2 0v-3h-3a1 1 0 0 1 0-2h3v-3a1 1 0 0 1 2 0v3z"/>
</svg>
