<?xml version="1.0" encoding="utf-8"?>
<!-- Generator: Adobe Illustrator 23.1.0, SVG Export Plug-In . SVG Version: 6.00 Build 0)  -->
<svg version="1.1" xmlns="http://www.w3.org/2000/svg" xmlns:xlink="http://www.w3.org/1999/xlink" x="0px" y="0px"
	 viewBox="0 0 347 208" style="enable-background:new 0 0 347 208;" xml:space="preserve">
<style type="text/css">
	.st0{display:none;}
	.st1{display:inline;opacity:0.05;}
	.st2{fill:#00BFFF;}
	.st3{fill:#FFFFFF;}
	.st4{font-family:'SDNemony2dBasicBd-KSCpc-EUC-H';}
	.st5{font-size:39.0076px;}
	.st6{fill:#FF8085;}
	.st7{fill:#E167E5;}
	.st8{fill:#6666FF;}
	.st9{fill:#FFAB31;}
	.st10{font-size:18.7177px;}
	.st11{font-family:'SDNemony2eBasicHv-KSCpc-EUC-H';}
	.st12{font-size:24.6016px;}
</style>
<g id="Layer_3">
</g>
<g id="Layer_2" class="st0">
	<rect x="-365" y="-45" class="st1" width="1066" height="300"/>
	<rect x="-365" y="-509" class="st1" width="1066" height="300"/>
</g>
<g id="Layer_1">
	<g>
		<path class="st2" d="M162.16,25.72c-50.15,0-90.81,40.66-90.81,90.81s40.66,90.81,90.81,90.81h90.81v-90.81
			C252.97,66.38,212.32,25.72,162.16,25.72z"/>
		<text transform="matrix(1 0 0 1 108.3345 109.1589)"><tspan x="0" y="0" class="st3 st4 st5">콘텐츠</tspan><tspan x="35.89" y="46.81" class="st3 st4 st5">상점</tspan></text>
		<path class="st6" d="M266.2,60.92l-2.47-12.28c-1.15-5.74-5.63-10.24-11.36-11.43l-12.22-2.53l12.28-2.47
			c5.74-1.15,10.24-5.63,11.43-11.36l2.53-12.22l2.47,12.28c1.15,5.74,5.63,10.24,11.36,11.43l12.22,2.53l-12.28,2.47
			c-5.74,1.15-10.24,5.63-11.43,11.36L266.2,60.92z"/>
		<path class="st7" d="M47.52,134.72l-1.72-8.57c-0.81-4.01-3.93-7.15-7.94-7.98l-8.54-1.77l8.57-1.72
			c4.01-0.81,7.15-3.93,7.98-7.94l1.77-8.54l1.72,8.57c0.81,4.01,3.93,7.15,7.94,7.98l8.54,1.77l-8.57,1.72
			c-4.01,0.81-7.15,3.93-7.98,7.94L47.52,134.72z"/>
		<path class="st8" d="M296.46,193.41h-46.78c-10.91,0-19.75-8.84-19.75-19.75v-46.78c0-10.91,8.84-19.75,19.75-19.75h46.78
			c10.91,0,19.75,8.84,19.75,19.75v46.78C316.21,184.57,307.37,193.41,296.46,193.41z"/>
		<circle class="st6" cx="87" cy="159.49" r="20.67"/>
		<path class="st7" d="M131.04,68.41H75.18c-7.85,0-14.21-6.36-14.21-14.21v-9.02c0-7.85,6.36-14.21,14.21-14.21h55.85
			c7.85,0,14.21,6.36,14.21,14.21v9.02C145.24,62.04,138.88,68.41,131.04,68.41z"/>
		<path class="st9" d="M187.9,38.1h-78.76c-7.85,0-14.21-6.36-14.21-14.21v-9.02c0-7.85,6.36-14.21,14.21-14.21h78.76
			c7.85,0,14.21,6.36,14.21,14.21v9.02C202.11,31.74,195.75,38.1,187.9,38.1z"/>
		<text transform="matrix(1 0 0 1 104.231 24.7482)" class="st3 st4 st10">CONTENT</text>
		<text transform="matrix(1 0 0 1 72.7041 55.2043)" class="st3 st4 st10">STORE</text>
		<text transform="matrix(1 0 0 1 239.21 156.5593)" class="st3 st11 st12">OPEN</text>
		<g>
			<path class="st9" d="M299.34,96.53h-4.4c-1.45,0-2.63-1.18-2.63-2.63V79.84c0-1.45,1.18-2.63,2.63-2.63h4.4
				c1.45,0,2.63,1.18,2.63,2.63V93.9C301.98,95.35,300.8,96.53,299.34,96.53z"/>
			<path class="st9" d="M327.35,128.93v-4.4c0-1.45,1.18-2.63,2.63-2.63h14.06c1.45,0,2.63,1.18,2.63,2.63v4.4
				c0,1.45-1.18,2.63-2.63,2.63h-14.06C328.53,131.57,327.35,130.39,327.35,128.93z"/>
			<path class="st9" d="M320.06,106.93l-3.11-3.11c-1.03-1.03-1.03-2.7,0-3.73l9.94-9.94c1.03-1.03,2.7-1.03,3.73,0l3.11,3.11
				c1.03,1.03,1.03,2.7,0,3.73l-9.94,9.94C322.75,107.96,321.09,107.96,320.06,106.93z"/>
		</g>
	</g>
</g>
</svg>
