<?xml version="1.0" encoding="utf-8"?>
<!-- Generator: Adobe Illustrator 23.1.0, SVG Export Plug-In . SVG Version: 6.00 Build 0)  -->
<svg version="1.1" xmlns="http://www.w3.org/2000/svg" xmlns:xlink="http://www.w3.org/1999/xlink" x="0px" y="0px"
	 viewBox="0 0 347 208" style="enable-background:new 0 0 347 208;" xml:space="preserve">
<style type="text/css">
	.st0{display:none;}
	.st1{display:inline;}
	.st2{display:inline;opacity:5.000000e-02;enable-background:new    ;}
	.st3{fill:#00BFFF;}
	.st4{fill:#FFFFFF;}
	.st5{font-family:'AdobeMyungjoStd-Medium-KSCpc-EUC-H';}
	.st6{font-size:39.0076px;}
	.st7{fill:#FF8085;}
	.st8{fill:#E167E5;}
	.st9{fill:#6666FF;}
	.st10{fill:#FFAB31;}
	.st11{font-family:'ArialMT';}
	.st12{font-size:18.7177px;}
	.st13{font-size:24.6016px;}
</style>
<g id="Layer_1" class="st0">
	<g id="Layer_3" class="st1">
	</g>
	<g>
		<rect x="-365" y="-45" class="st2" width="1066" height="300"/>
		<rect x="-365" y="-509" class="st2" width="1066" height="300"/>
	</g>
	<g class="st1">
		<g>
			<path class="st3" d="M162.2,25.7c-50.2,0-90.8,40.7-90.8,90.8s40.7,90.8,90.8,90.8H253v-90.8C253,66.4,212.3,25.7,162.2,25.7z"/>
			<text transform="matrix(1 0 0 1 108.3345 109.1589)" class="st4 st5 st6">콘텐츠</text>
			<text transform="matrix(1 0 0 1 144.2245 155.9689)" class="st4 st5 st6">상점</text>
			<path class="st7" d="M266.2,60.9l-2.5-12.3c-1.1-5.7-5.6-10.2-11.4-11.4l-12.2-2.5l12.3-2.5c5.7-1.1,10.2-5.6,11.4-11.4l2.5-12.2
				l2.5,12.3c1.1,5.7,5.6,10.2,11.4,11.4l12.2,2.5l-12.3,2.5c-5.7,1.2-10.2,5.6-11.4,11.4L266.2,60.9z"/>
			<path class="st8" d="M47.5,134.7l-1.7-8.6c-0.8-4-3.9-7.2-7.9-8l-8.5-1.8l8.6-1.7c4-0.8,7.2-3.9,8-7.9l1.8-8.5l1.7,8.6
				c0.8,4,3.9,7.2,7.9,8l8.5,1.8l-8.6,1.7c-4,0.8-7.2,3.9-8,7.9L47.5,134.7z"/>
			<path class="st9" d="M296.5,193.4h-46.8c-10.9,0-19.8-8.8-19.8-19.8v-46.8c0-10.9,8.8-19.8,19.8-19.8h46.8
				c10.9,0,19.8,8.8,19.8,19.8v46.8C316.2,184.6,307.4,193.4,296.5,193.4z"/>
			<circle class="st7" cx="87" cy="159.5" r="20.7"/>
			<path class="st8" d="M131,68.4H75.2c-7.8,0-14.2-6.4-14.2-14.2v-9C61,37.3,67.3,31,75.2,31H131c7.9,0,14.2,6.4,14.2,14.2v9
				C145.2,62,138.9,68.4,131,68.4z"/>
			<path class="st10" d="M187.9,38.1h-78.8c-7.8,0-14.2-6.4-14.2-14.2v-9c0-7.8,6.4-14.2,14.2-14.2h78.8c7.9,0,14.2,6.4,14.2,14.2v9
				C202.1,31.7,195.8,38.1,187.9,38.1z"/>
			<text transform="matrix(1 0 0 1 104.231 24.7482)" class="st4 st11 st12">CONTENT</text>
			<text transform="matrix(1 0 0 1 72.7041 55.2043)" class="st4 st11 st12">STORE</text>
			<text transform="matrix(1 0 0 1 239.21 156.5593)" class="st4 st11 st13">OPEN</text>
			<g>
				<path class="st10" d="M299.3,96.5h-4.4c-1.5,0-2.6-1.2-2.6-2.6V79.8c0-1.4,1.2-2.6,2.6-2.6h4.4c1.5,0,2.6,1.2,2.6,2.6v14.1
					C302,95.3,300.8,96.5,299.3,96.5z"/>
				<path class="st10" d="M327.4,128.9v-4.4c0-1.4,1.2-2.6,2.6-2.6H344c1.5,0,2.6,1.2,2.6,2.6v4.4c0,1.4-1.2,2.6-2.6,2.6H330
					C328.5,131.6,327.4,130.4,327.4,128.9z"/>
				<path class="st10" d="M320.1,106.9l-3.1-3.1c-1-1-1-2.7,0-3.7l9.9-9.9c1-1,2.7-1,3.7,0l3.1,3.1c1,1,1,2.7,0,3.7l-9.9,9.9
					C322.8,108,321.1,108,320.1,106.9z"/>
			</g>
		</g>
	</g>
</g>
<g id="Layer_2">
	<g>
		<path class="st3" d="M161.9,25.5c-50.2,0-90.8,40.7-90.8,90.8s40.7,90.8,90.8,90.8h90.8v-90.8C252.7,66.1,212.1,25.5,161.9,25.5z"
			/>
		<g>
			<path class="st4" d="M142.7,102.1c-4.8,0.2-27.4,0.2-33.3,0c-0.1-1.1-0.1-2.8,0-3.9c3.1-0.1,7.9-0.1,12.9-0.1
				c0-1.8,0-3.9,0.1-4.9c1.1-0.2,3.5-0.2,4.6,0c0,1,0,3.1,0,4.9c6.7,0,13.1,0,15.7,0.1C142.8,99.2,142.8,100.9,142.7,102.1z
				 M141.2,110.9c0.2,1.1,0.2,2.8,0,4c-3.4,0.2-26,0.2-29.5,0c-0.2-2.8-0.1-7.7,0-10c0.9-0.1,3.5-0.1,4.6,0c0.1,2,0.1,4.3,0,6
				C123.7,110.9,138,110.8,141.2,110.9z M112.1,84.2c-0.2-1.2-0.2-2.7,0-3.8c3.3-0.2,23.6-0.2,27.5,0c0.2,3.8,0.2,12.8,0,15.4
				c-0.9,0.1-3.7,0.1-4.5,0c0-1.1,0-2.7,0-4.5c-7.8,0-19.1,0.1-22.6,0c-0.2-1.2-0.2-2.6,0-3.8c3.1-0.1,14.9-0.1,22.6,0
				c0-1.4,0-2.5,0-3.2C128.3,84.3,115.2,84.3,112.1,84.2z"/>
			<path class="st4" d="M146.1,99.8c-0.2-3.9-0.2-15.3,0-19c3.2-0.2,12.1-0.1,15.3,0c0.2,1.1,0.2,2.6,0,3.7c-2.5,0.1-8.2,0-10.8,0
				c0,0.9,0,2.3,0,3.9c3,0,6.4,0,9.2,0c0.2,1.2,0.1,2.5,0,3.7c-2.8,0.1-6.2,0.1-9.2,0c0,1.6,0,3,0,3.9c2.6,0,9.4-0.1,11.9,0
				c0.2,1.2,0.2,2.6,0,3.8C159.5,100,149.6,100,146.1,99.8z M178.3,114.8c-3.5,0.2-24.5,0.2-29.3,0c-0.2-2.8-0.1-9.3,0-11.6
				c1-0.1,3.4-0.1,4.5,0c0.1,2,0.1,5.5,0,7.6c7.6,0,21.3-0.1,24.8,0C178.5,112,178.5,113.7,178.3,114.8z M165.7,88.1
				c0-3.7,0-6.9,0.1-8c0.9-0.2,3.4-0.2,4.3,0c0.1,3.4,0,21.7,0,25.2c-0.9,0.1-3.2,0.1-4.3,0c-0.1-1.8-0.1-7.5-0.1-13.1
				c-1.6,0-3.4,0-4.4-0.1c-0.1-1.2-0.1-2.8,0-4C162.2,88.1,164,88.1,165.7,88.1z M173.4,105.6c-0.1-3.5-0.1-22.7,0-25.6
				c0.9-0.2,3.4-0.2,4.3,0c0.1,3.4,0.1,22.1,0,25.6C176.8,105.8,174.5,105.7,173.4,105.6z"/>
			<path class="st4" d="M214.5,113.8c-3.7,0.2-28.5,0.2-33.3,0c-0.1-1.1-0.1-2.8,0-4c7.2-0.1,29.4-0.1,33.3,0
				C214.6,110.9,214.6,112.5,214.5,113.8z M182.3,99.5c3.3-1.8,8.7-4.7,13.1-7.1c0-1.8-0.1-3.2,0-4.5c-5.3,0-10.3,0-12.1-0.1
				c-0.2-1.2-0.2-3,0-4.1c1.9,0,6.8-0.1,12.1-0.1c0-1.5,0-3,0.1-4.2c1.4-0.1,3.7-0.1,4.8,0c0.1,1.2,0.1,2.7,0.1,4.2
				c4.8,0,9.4,0,12.1,0.1c0.1,1.2,0.1,3,0,4.1c-2.1,0-6.9,0.1-12.1,0.1c0,1.3,0,2.8,0,4.5c4.4,2.2,9.9,5,13.2,6.7
				c-0.3,1.1-1.4,3-2.2,3.7c-2.7-1.3-8.7-4.3-13.4-6.7c-4.7,2.6-10.6,5.7-13.3,7.1C183.9,102.5,182.6,100.5,182.3,99.5z"/>
			<path class="st4" d="M147.7,145.2c-0.8-0.6-2.3-2.3-2.8-3.2c2.8-2.7,6.3-5.9,9.4-8.6c0-2,0-4.6,0-6.2c0.9-0.2,3.6-0.2,4.7,0
				c0,1.6,0,4.2,0,6.2c3.2,2.4,6.7,5.1,9.7,7.4c-0.4,1-1.8,2.8-2.5,3.5c-2.8-2-6.4-4.8-9.5-7.3C153.7,139.8,150.3,142.9,147.7,145.2
				z M176.4,154.6c0,5.5-3.5,7.7-14.8,7.7c-11.7,0-14.8-2.5-14.8-7.7c0-5.5,3.5-7.6,14.8-7.6C173.3,146.9,176.4,149.5,176.4,154.6z
				 M171.8,154.6c0-2.3-1.3-3.7-10.2-3.7c-8.9,0-10.2,1.3-10.2,3.7c0,2.4,1.3,3.7,10.2,3.7C170.5,158.3,171.8,157,171.8,154.6z
				 M179.5,137.7c-0.7,0-2.1,0.1-3.7,0.1c0,3.3,0,6.4-0.1,8.1c-1,0.2-3.4,0.1-4.5,0c-0.1-3.5-0.1-15.8,0-19.1c0.9-0.2,3.4-0.2,4.5,0
				c0,1.5,0,4,0.1,6.7c1.4,0,2.8,0,3.7,0C179.6,134.7,179.6,136.5,179.5,137.7z"/>
			<path class="st4" d="M192.3,140.2c-2.8,2.1-6,4.3-8.7,6.1c-0.8-0.7-2-2.3-2.5-3.4l8.7-6.2v-5.2c-3.5,0-6.7,0-7.9-0.1
				c-0.2-1.2-0.2-2.8,0-3.9c2.9-0.1,15-0.2,20.5,0c0.1,1.1,0.1,2.8,0,3.9c-1.4,0-4.4,0-7.8,0.1v5.1l8.9,5.1c-0.4,1-1.5,2.8-2.2,3.6
				C198.3,143.8,195.2,142,192.3,140.2z M212.8,161.6c-3.5,0.2-24.3,0.3-28,0c-0.2-4.2-0.1-9.6,0-13.7c3.4-0.1,25.6-0.1,28,0
				C212.9,151.4,212.9,158.3,212.8,161.6z M208.3,151.8c-2.5-0.1-16.3-0.1-19.1,0c-0.1,1.6-0.1,4.1,0,6c2.3,0.1,16.9,0.1,19.1,0
				C208.3,156.2,208.3,153.6,208.3,151.8z M208.1,133.8c0-3,0-5.8,0.1-7.1c0.9-0.2,3.4-0.2,4.5,0c0.1,4.1,0.1,15.4,0,19.3
				c-1,0.2-3.4,0.1-4.5,0c0-1.5-0.1-4.6-0.1-7.9c-2.3,0-5.2,0-6.4-0.1c-0.1-1.2-0.1-3,0-4.2C202.9,133.8,205.8,133.8,208.1,133.8z"
				/>
		</g>
		<path class="st7" d="M266,60.7l-2.5-12.3c-1.2-5.7-5.6-10.2-11.4-11.4l-12.2-2.5l12.3-2.5c5.7-1.2,10.2-5.6,11.4-11.4l2.5-12.2
			l2.5,12.3c1.2,5.7,5.6,10.2,11.4,11.4l12.2,2.5l-12.3,2.5c-5.7,1.2-10.2,5.6-11.4,11.4L266,60.7z"/>
		<path class="st8" d="M47.3,134.5l-1.7-8.6c-0.8-4-3.9-7.2-7.9-8l-8.5-1.8l8.6-1.7c4-0.8,7.2-3.9,8-7.9l1.8-8.5l1.7,8.6
			c0.8,4,3.9,7.2,7.9,8l8.5,1.8L57,118c-4,0.8-7.2,3.9-8,7.9L47.3,134.5z"/>
		<path class="st9" d="M296.2,193.2h-46.8c-10.9,0-19.8-8.8-19.8-19.8v-46.8c0-10.9,8.8-19.8,19.8-19.8h46.8
			c10.9,0,19.8,8.8,19.8,19.8v46.8C316,184.3,307.1,193.2,296.2,193.2z"/>
		<circle class="st7" cx="86.8" cy="159.2" r="20.7"/>
		<path class="st8" d="M130.8,68.2H74.9c-7.8,0-14.2-6.4-14.2-14.2v-9c0-7.8,6.4-14.2,14.2-14.2h55.9c7.8,0,14.2,6.4,14.2,14.2v9
			C145,61.8,138.6,68.2,130.8,68.2z"/>
		<path class="st10" d="M187.7,37.9h-78.8c-7.8,0-14.2-6.4-14.2-14.2v-9c0-7.8,6.4-14.2,14.2-14.2h78.8c7.8,0,14.2,6.4,14.2,14.2v9
			C201.9,31.5,195.5,37.9,187.7,37.9z"/>
		<g>
			<path class="st4" d="M104.8,19c0-5.5,2.5-7.8,6.3-7.8c1.9,0,3.3,0.4,4.6,1.8c-0.3,0.6-0.8,1.2-1.3,1.6c-0.9-0.8-1.8-1.2-3.3-1.2
				c-2.4,0-4.1,1.6-4.1,5.7c0,4.2,1.7,5.7,4.2,5.7c1.5,0,2.6-0.4,3.5-1.2c0.5,0.4,1,1,1.3,1.6c-1.4,1.3-2.8,1.8-4.8,1.8
				C107.2,26.9,104.8,24.5,104.8,19z"/>
			<path class="st4" d="M116.9,19c0-5.5,2.2-7.8,6.3-7.8s6.3,2.4,6.3,7.8c0,5.6-2.3,7.8-6.3,7.8C119.1,26.9,116.9,24.5,116.9,19z
				 M127.3,19c0-3.9-1.2-5.8-4.1-5.8c-2.7,0-4.1,1.6-4.1,5.8c0,4.2,1.4,5.8,4.1,5.8C125.8,24.8,127.3,23.3,127.3,19z"/>
			<path class="st4" d="M131.5,11.4c0.7-0.1,1.8-0.1,2.2,0c1.5,2.4,5.3,9.1,6.4,11.1c-0.1-1.6-0.1-9.2,0-11.1c0.7-0.1,1.7-0.1,2.2,0
				c0,3.1,0,12.2,0,15.2c-0.6,0.1-1.4,0.1-2.2,0c-1.3-2.1-5.3-9.1-6.5-11.3c0.1,1.9,0.1,9.6,0,11.3c-0.7,0.1-1.5,0.1-2.2,0
				C131.5,23.7,131.5,14.7,131.5,11.4z"/>
			<path class="st4" d="M154.7,13.4c-1,0-2.5,0-4.2,0c0,3.2,0,12,0,13.1c-0.7,0.1-1.6,0.1-2.2,0c0-1,0-9.9,0-13.1
				c-1.6,0-3.1,0-4.2,0c-0.1-0.7-0.1-1.4,0-2c2.6-0.1,8.2-0.1,10.6,0C154.8,12.1,154.8,12.6,154.7,13.4z"/>
			<path class="st4" d="M165.7,26.6c-1.6,0-7.5,0-9.2,0c0-4.1,0-11.1,0-15.2c1.7-0.1,7.5-0.1,9.1,0c0.1,0.7,0.1,1.4,0,2
				c-1.1,0.1-5.9,0-6.8,0c0,0.7,0,2.5,0,4.4c1.9,0,5.1,0,6,0c0.1,0.7,0.1,1.4,0,2.1c-0.9,0-4.1,0-6,0c0,2.1,0,4,0,4.6
				c0.9,0,5.9,0,6.9,0C165.7,25.2,165.7,25.9,165.7,26.6z"/>
			<path class="st4" d="M167.9,11.4c0.7-0.1,1.8-0.1,2.2,0c1.5,2.4,5.3,9.1,6.4,11.1c-0.1-1.6-0.1-9.2,0-11.1c0.7-0.1,1.7-0.1,2.2,0
				c0,3.1,0,12.2,0,15.2c-0.6,0.1-1.4,0.1-2.2,0c-1.3-2.1-5.3-9.1-6.5-11.3c0.1,1.9,0.1,9.6,0,11.3c-0.7,0.1-1.5,0.1-2.2,0
				C167.9,23.7,167.9,14.7,167.9,11.4z"/>
			<path class="st4" d="M191.1,13.4c-1,0-2.5,0-4.2,0c0,3.2,0,12,0,13.1c-0.7,0.1-1.6,0.1-2.2,0c0-1,0-9.9,0-13.1
				c-1.6,0-3.1,0-4.2,0c-0.1-0.7-0.1-1.4,0-2c2.6-0.1,8.2-0.1,10.6,0C191.2,12.1,191.2,12.6,191.1,13.4z"/>
		</g>
		<g>
			<path class="st4" d="M73.2,55.1c0.3-0.5,0.9-1.3,1.4-1.7c1.2,1,2.7,1.9,4.2,1.9s2.6-0.8,2.6-2.2c0-1.3-0.6-2-3.4-3
				c-2.8-0.9-4.1-2.2-4.1-4.3c0-2.6,1.7-4.1,4.8-4.1c1.8,0,3.4,0.7,4.5,1.9c-0.3,0.5-0.8,1.1-1.4,1.5c-1-0.9-1.9-1.3-3.2-1.3
				c-1.5,0-2.4,0.8-2.4,1.9c0,1.2,0.6,1.9,3.1,2.7c3,1,4.3,2.2,4.3,4.6c0,2.7-1.7,4.4-5,4.4C76.4,57.3,74.6,56.4,73.2,55.1z"/>
			<path class="st4" d="M95.1,43.9c-1,0-2.5,0-4.2,0c0,3.2,0,12,0,13.1c-0.7,0.1-1.6,0.1-2.2,0c0-1,0-9.9,0-13.1c-1.6,0-3.1,0-4.2,0
				c-0.1-0.7-0.1-1.4,0-2c2.6-0.1,8.2-0.1,10.6,0C95.1,42.6,95.1,43.1,95.1,43.9z"/>
			<path class="st4" d="M95.8,49.5c0-5.5,2.2-7.8,6.3-7.8s6.3,2.4,6.3,7.8c0,5.6-2.3,7.8-6.3,7.8C98,57.3,95.8,55,95.8,49.5z
				 M106.2,49.5c0-3.9-1.2-5.8-4.1-5.8c-2.7,0-4.1,1.6-4.1,5.8c0,4.2,1.4,5.8,4.1,5.8C104.7,55.2,106.2,53.7,106.2,49.5z"/>
			<path class="st4" d="M119.2,57.3c-1.2-1.7-2.8-4.2-4-6.2c-0.7,0-1.8,0-2.5,0c0,2.7,0,5.2,0,5.9c-0.6,0.1-1.5,0.1-2.2,0
				c0-2.2,0-13.4,0-15.2c1.8,0,4-0.1,5.5,0c3.2,0.1,4.6,1.9,4.6,4.6c0,2.4-1.1,3.8-3,4.4c1.2,1.8,2.7,4.1,3.4,5.4
				C120.5,56.7,119.8,57.1,119.2,57.3z M115.5,49c2-0.1,2.8-0.9,2.8-2.5c0-1.6-0.8-2.5-2.7-2.5c-0.9,0-2.1,0-3,0c0,0.4,0,2.6,0,5.1
				C113.6,49,114.7,49,115.5,49z"/>
			<path class="st4" d="M132.1,57c-1.6,0-7.5,0-9.2,0c0-4.1,0-11.1,0-15.2c1.7-0.1,7.5-0.1,9.1,0c0.1,0.7,0.1,1.4,0,2
				c-1.1,0.1-5.9,0-6.8,0c0,0.7,0,2.5,0,4.4c1.9,0,5.1,0,6,0c0.1,0.7,0.1,1.4,0,2.1c-0.9,0-4.1,0-6,0c0,2.1,0,4,0,4.6
				c0.9,0,5.9,0,6.9,0C132.2,55.7,132.2,56.3,132.1,57z"/>
		</g>
		<g>
			<path class="st4" d="M239.8,149.1c0-7.2,3-10.3,8.5-10.3s8.5,3.1,8.5,10.3c0,7.4-3.2,10.3-8.5,10.3
				C242.8,159.4,239.8,156.4,239.8,149.1z M253,149.1c0-4.6-1.3-6.8-4.7-6.8c-3.1,0-4.7,1.8-4.7,6.8c0,5.1,1.6,6.8,4.7,6.8
				C251.3,155.9,253,154.3,253,149.1z"/>
			<path class="st4" d="M272.4,145.5c0,4.4-2.5,6.5-6.5,6.6c-0.6,0-1.9,0-3,0c0,3.1,0,6,0,6.9c-1,0.1-2.6,0.1-3.7,0
				c-0.1-3.2-0.1-17.3,0-19.9c2.2,0,5-0.1,7,0C270.4,139.2,272.4,141.8,272.4,145.5z M268.6,145.6c0-2-0.8-2.9-2.9-3
				c-1,0-1.9,0-2.8,0c0,0.7,0,3.1,0,6c0.9,0,1.8,0,2.8,0C267.8,148.5,268.6,147.5,268.6,145.6z"/>
			<path class="st4" d="M287.4,159c-2,0-10.5,0-12.6,0c0-6.6,0-13.3,0-19.9c2.1-0.1,10.6-0.1,12.5,0c0.1,1.2,0.1,2.3,0,3.5
				c-0.9,0.1-7.6,0-8.6,0c0,0.8,0,2.6,0,4.6c2.6,0,6.7,0,7.6,0c0.1,1.2,0.1,2.3,0,3.5c-0.8,0-4.9,0.1-7.6,0c0,2.2,0,4.2,0,4.8
				c1.1,0,7.9,0,8.7,0C287.5,156.8,287.5,157.9,287.4,159z"/>
			<path class="st4" d="M290,139.1c1.1-0.1,2.8-0.1,3.5,0c1.9,2.8,6.4,10.5,7.6,12.7c-0.1-1.8-0.1-10.6,0-12.7
				c1.2-0.1,2.9-0.1,3.7,0c0,4.3,0,16.1,0,19.9c-0.9,0.2-2.2,0.2-3.3,0c-1.5-2.3-6.4-10.5-7.8-13.1c0,2.5,0.1,11.4,0,13.1
				c-1.1,0.2-2.5,0.1-3.7,0C290,155,290,143.4,290,139.1z"/>
		</g>
		<g>
			<path class="st10" d="M299.1,96.3h-4.4c-1.5,0-2.6-1.2-2.6-2.6V79.6c0-1.5,1.2-2.6,2.6-2.6h4.4c1.5,0,2.6,1.2,2.6,2.6v14.1
				C301.7,95.1,300.6,96.3,299.1,96.3z"/>
			<path class="st10" d="M327.1,128.7v-4.4c0-1.5,1.2-2.6,2.6-2.6h14.1c1.5,0,2.6,1.2,2.6,2.6v4.4c0,1.5-1.2,2.6-2.6,2.6h-14.1
				C328.3,131.3,327.1,130.1,327.1,128.7z"/>
			<path class="st10" d="M319.8,106.7l-3.1-3.1c-1-1-1-2.7,0-3.7l9.9-9.9c1-1,2.7-1,3.7,0l3.1,3.1c1,1,1,2.7,0,3.7l-9.9,9.9
				C322.5,107.7,320.8,107.7,319.8,106.7z"/>
		</g>
	</g>
</g>
</svg>
