<svg xmlns="http://www.w3.org/2000/svg" width="92" height="92" viewBox="0 0 92 92">
    <defs>
        <style>
            .cls-1{fill:#00bfff}.cls-2{fill:#fff}
        </style>
    </defs>
    <g id="도착" transform="translate(-.667 -.667)">
        <g id="그룹_219" transform="translate(1 1)">
            <circle id="타원_4" cx="46" cy="46" r="46" class="cls-1" transform="translate(-.333 -.333)"/>
        </g>
        <path id="사각형_8" d="M0 0H46V46H0z" class="cls-1" transform="translate(46.667 46.667)"/>
        <g id="그룹_220" transform="translate(18.396 32.946)">
            <path id="패스_4" d="M389.1 725.5c-2.626.168-20.391.112-23.854 0a16.211 16.211 0 0 1 0-2.849c2.123-.028 6.117-.056 10.251-.056-.056-1.927-.028-4.553.028-5.67a12.041 12.041 0 0 1 3.324 0c.056 1.257.028 3.8.028 5.67 4.637 0 8.911.028 10.223.056a16.059 16.059 0 0 1 0 2.849zm-22.2-10.252c-.168-3.156-.139-9.72 0-12.821 2.765-.139 17.653-.084 20.307 0a13.114 13.114 0 0 1 0 2.961c-2.1.056-14.776.056-16.955 0-.028 1.564-.028 5.447 0 6.9 2.262 0 15.418-.028 17.514 0a17.484 17.484 0 0 1 0 2.961c-2.266.111-18.102.083-20.866-.001z" class="cls-2" transform="translate(-365.188 -700.786)"/>
            <path id="패스_5" d="M902.13 682.5c2.1-1.4 4.357-2.989 6.48-4.441-.028-.81-.028-1.983-.028-2.933-2.765 0-5.251-.028-6.117-.056a16.2 16.2 0 0 1 0-2.849c.95-.028 3.38-.056 6.117-.056a20.089 20.089 0 0 1 .056-2.29 13.686 13.686 0 0 1 3.38 0c.028.615.056 1.509.028 2.29 2.291 0 4.469.028 5.894.056a16.212 16.212 0 0 1 0 2.849c-1.006.028-3.324.028-5.894.056.028.978.028 2.179-.028 3.017 2.179 1.173 4.386 2.318 6.508 3.52a10.3 10.3 0 0 1-1.536 2.57c-2.151-1.09-4.5-2.346-6.676-3.631-2.1 1.508-4.413 3.072-6.4 4.357a8.673 8.673 0 0 1-1.784-2.459zm21.955 3.938c.112 2.57.084 7.346 0 8.8a20.935 20.935 0 0 1-3.24 0c-.056-1.48 0-4.162 0-5.894-5.251 0-15.055.084-17.178 0a12.618 12.618 0 0 1 0-2.9c2.233-.117 17.764-.144 20.418-.005zm2.682-7.653c-.475.056-1.508.084-2.626.084 0 2.57-.028 4.972-.056 6.229a17.931 17.931 0 0 1-3.24 0c-.084-2.626-.084-12.4 0-14.8a15.674 15.674 0 0 1 3.24 0c.028 1.173.028 3.24.056 5.531 1.034 0 2.039 0 2.626.028a17.1 17.1 0 0 1-.001 2.928z" class="cls-2" transform="translate(-876.481 -669.77)"/>
            <path id="패스_6" d="M1477.52 697.945a16.291 16.291 0 0 1 3.687 0c0 2.6-.14 14.357-.251 16.7a20.593 20.593 0 0 1-3.212 0c-.112-2.371-.196-14.103-.224-16.7zm.083 19.581a19.1 19.1 0 0 1 3.575 0c.056 1.173.056 2.262 0 3.408a19.119 19.119 0 0 1-3.575.028 28.346 28.346 0 0 1-.003-3.437z" class="cls-2" transform="translate(-1424.386 -696.499)"/>
        </g>
    </g>
</svg>
