<svg xmlns="http://www.w3.org/2000/svg" xmlns:xlink="http://www.w3.org/1999/xlink" width="32" height="32" viewBox="0 0 32 32">
    <defs>
        <filter id="mghwtaw8ya" width="118.5%" height="129.4%" x="-8.1%" y="-13.5%" filterUnits="objectBoundingBox">
            <feOffset dx="6" dy="4" in="SourceAlpha" result="shadowOffsetOuter1"/>
            <feGaussianBlur in="shadowOffsetOuter1" result="shadowBlurOuter1" stdDeviation="15"/>
            <feColorMatrix in="shadowBlurOuter1" values="0 0 0 0 0.0980392157 0 0 0 0 0.0980392157 0 0 0 0 0.0980392157 0 0 0 0.1 0"/>
        </filter>
        <rect id="av02jvcr2b" width="520" height="327" x="0" y="0" rx="20"/>
        <path id="5ogkntevkc" d="M.001 2.843L0 2.667c0-.198.021-.39.062-.575l.007-.03.009-.036.014-.055L.1 1.94l.01-.036.016-.049.022-.065c.02-.06.044-.12.069-.179l.03-.068.015-.031.033-.066.027-.05.038-.068.025-.042L.4 1.26l.027-.043.029-.044.041-.059.036-.048.019-.025.042-.054.02-.025L.67.9.702.863.74.823l.04-.04.05-.05.056-.05.053-.047.047-.04.06-.046.044-.033.04-.029.088-.06.085-.053.029-.017.079-.044.062-.032.012-.006.09-.042.069-.03.055-.023.021-.008.071-.026.031-.01.058-.019.067-.02.056-.015.078-.018.04-.01.075-.013.062-.01c.039-.007.079-.012.118-.016L2.426.01c.08-.007.16-.011.24-.011l.076.001.054.002.068.004.062.005.057.007.055.007.07.01.06.011.054.01.069.016.052.013.054.015.065.02.053.017.054.018.058.022c.998.386 1.706 1.355 1.706 2.489 0 1.119-.689 2.077-1.666 2.472l-.042.017c.75 2.121 2.431 3.802 4.552 4.552l.001-.002C8.564 8.708 9.533 8 10.667 8c1.123 0 2.084.695 2.477 1.678l.012.03.024.065.017.048.02.067.016.051.017.064.014.058.012.052.013.065c.01.056.019.112.025.17l.009.08.004.056c.003.036.004.071.005.107v.024l.001.052c0 1.458-1.17 2.642-2.622 2.666h-.044C4.835 13.333.096 8.653 0 2.843z"/>
    </defs>
    <g fill="none" fill-rule="evenodd">
        <g>
            <g>
                <g transform="translate(-724 -1812) translate(700 1730)">
                    <use fill="#000" filter="url(#mghwtaw8ya)" xlink:href="#av02jvcr2b"/>
                    <use fill="#FFF" xlink:href="#av02jvcr2b"/>
                </g>
                <g>
                    <path d="M0 0H32V32H0z" transform="translate(-724 -1812) translate(700 1730) translate(24 82)"/>
                    <g>
                        <g transform="translate(-724 -1812) translate(700 1730) translate(24 82) translate(8 8) translate(1.333 1.333)">
                            <use fill="#191919" xlink:href="#5ogkntevkc"/>
                        </g>
                    </g>
                </g>
            </g>
        </g>
    </g>
</svg>
