<svg xmlns="http://www.w3.org/2000/svg" width="20" height="20" viewBox="0 0 20 20">
    <g transform="translate(-810 -758)">
        <circle cx="10" cy="10" r="10" fill="#e6e6e6" transform="translate(810 758)"/>
        <g>
            <g>
                <path fill="#fff" d="M4.333.138a.471.471 0 0 1 .046.613L4.333.8 1.724 3.411h7.688a.588.588 0 0 1 0 1.176H1.724L4.333 7.2a.471.471 0 0 1 .046.613l-.046.053a.471.471 0 0 1-.613.046l-.053-.046L.138 4.333a.471.471 0 0 1-.046-.613l.046-.053L3.667.138a.471.471 0 0 1 .666 0z" transform="rotate(-90 794.5 -21.5)"/>
            </g>
        </g>
    </g>
</svg>
