<svg xmlns="http://www.w3.org/2000/svg" width="13" height="7" viewBox="0 0 13 7">
    <g fill="none" fill-rule="evenodd">
        <g>
            <g>
                <g>
                    <g>
                        <g>
                            <g>
                                <g>
                                    <g>
                                        <path d="M0 0H13V7H0z" transform="translate(-847 -1694) translate(700 148) translate(0 64) translate(0 1183) translate(32 250) translate(0 26) translate(115 23)"/>
                                        <path fill="gray" fill-rule="nonzero" d="M12.15.144c.196-.194.513-.192.706.005.194.197.192.514-.005.707l-6.099 6c-.197.194-.513.192-.707-.005L.144.85C-.05.654-.047.337.149.144.346-.05.663-.047.856.149l5.551 5.644L12.15.143z" transform="translate(-847 -1694) translate(700 148) translate(0 64) translate(0 1183) translate(32 250) translate(0 26) translate(115 23)"/>
                                    </g>
                                </g>
                            </g>
                        </g>
                    </g>
                </g>
            </g>
        </g>
    </g>
</svg>
