<svg xmlns="http://www.w3.org/2000/svg" width="52" height="52" viewBox="0 0 52 52">
    <g fill="none" fill-rule="evenodd">
        <g>
            <g>
                <g transform="translate(-324 -652) translate(256 604) translate(68 48)">
                    <circle cx="26" cy="26" r="26" fill="#FAFAFA"/>
                    <g>
                        <path fill="#4285F4" d="M29.4 15.34c0-1.063-.095-2.085-.273-3.067H15v5.802h8.073c-.348 1.875-1.405 3.464-2.993 4.527v3.764h4.847c2.837-2.611 4.473-6.457 4.473-11.025z" transform="translate(11 11)"/>
                        <path fill="#34A853" d="M15 30c4.05 0 7.445-1.343 9.927-3.634l-4.847-3.764c-1.344.9-3.062 1.432-5.08 1.432-3.907 0-7.214-2.639-8.393-6.184H1.595v3.886C4.064 26.64 9.136 30 15 30z" transform="translate(11 11)"/>
                        <path fill="#FBBC05" d="M6.607 17.85c-.3-.9-.47-1.861-.47-2.85 0-.989.17-1.95.47-2.85V8.264H1.595C.58 10.289 0 12.58 0 15s.58 4.711 1.595 6.736l5.012-3.886z" transform="translate(11 11)"/>
                        <path fill="#EA4335" d="M15 5.966c2.202 0 4.18.757 5.734 2.243l4.302-4.302C22.44 1.487 19.043 0 15 0 9.136 0 4.064 3.361 1.595 8.264l5.012 3.886C7.787 8.605 11.093 5.966 15 5.966z" transform="translate(11 11)"/>
                        <path d="M0 0L30 0 30 30 0 30z" transform="translate(11 11)"/>
                    </g>
                </g>
            </g>
        </g>
    </g>
</svg>
