<?xml version="1.0" encoding="utf-8"?>
<!-- Generator: Adobe Illustrator 23.1.0, SVG Export Plug-In . SVG Version: 6.00 Build 0)  -->
<svg version="1.1" xmlns="http://www.w3.org/2000/svg" xmlns:xlink="http://www.w3.org/1999/xlink" x="0px" y="0px"
	 viewBox="0 0 356 460" style="enable-background:new 0 0 356 460;" xml:space="preserve">
<style type="text/css">
	.st0{fill:#D9F7FF;}
	.st1{fill:#E167E5;}
	.st2{fill:#00BFFF;}
	.st3{fill:none;}
	.st4{clip-path:url(#SVGID_2_);}
	.st5{fill:#FFFFFF;}
	.st6{fill:#3AC2EE;}
	.st7{fill:#FFAB31;}
	.st8{fill:#FF8085;}
</style>
<g id="Layer_2">
	<circle class="st0" cx="277.7" cy="384" r="74"/>
</g>
<g id="Layer_1">
	<g>
		
			<text transform="matrix(0.9466 -0.3225 0.3225 0.9466 -408.6316 802.5561)" style="fill:none;stroke:#EAEAEA;stroke-width:2;stroke-miterlimit:10; font-family:'SDNemony2eBasicHv-KSCpc-EUC-H'; font-size:85.8058px;">CONTENT</text>
	</g>
	<g>
		<path d="M15.6,398.3c0.1,0.2,0.1,0.6,0,0.8c-1.1,0.1-5.1,0.1-6.7,0c-0.1-2.8-0.1-11,0-13.4c0.2-0.1,0.7-0.1,0.9,0
			c0.1,2.4,0,10.6,0,12.6C10.8,398.2,14.5,398.2,15.6,398.3z M22.4,400.4c-0.2,0.1-0.6,0.1-0.9,0c0-1.1,0-4.6,0-8
			c-1.1,0-2.3,0-3.5,0c0,3.3,0,6.8,0,7.8c-0.2,0.1-0.6,0.1-0.9,0c-0.1-2.1-0.1-12.8,0-15c0.3-0.1,0.6-0.1,0.9,0c0,0.9,0,3.5,0,6.3
			c1.2,0,2.3,0,3.5,0c0-2.8,0-5.5,0-6.4c0.3-0.1,0.6-0.1,0.9,0C22.5,387.3,22.5,398.3,22.4,400.4z"/>
		<path d="M32.7,385.8c0.1,2,0.2,11.5,0.1,13.4c-0.2,0.1-0.7,0.1-0.9,0c0-1.8,0-11.3,0-12.6c-1.1,0-5.9,0-7.3,0
			c-0.1-0.2-0.1-0.6,0-0.8C26,385.8,30.7,385.8,32.7,385.8z M39.4,392.4c-0.6,0-1.3,0-2,0c0,3.4,0,6.9,0,8c-0.2,0.1-0.6,0.1-0.9,0
			c-0.1-2.1-0.1-13,0-15.2c0.3-0.1,0.7-0.1,0.9,0c0,0.9,0,3.6,0,6.4c0.7,0,1.4,0,2,0C39.4,391.8,39.4,392.1,39.4,392.4z"/>
		<path d="M58.3,392.8c-3.4,0-10.7,0.1-14.5,0c-0.1-0.2-0.1-0.6,0-0.8c1.8,0,4.3,0,6.8,0c0-0.6,0-1.3,0-2c0.3-0.1,0.6-0.1,0.9,0
			c0,0.6,0,1.4,0,2c2.6,0,5.1,0,6.8,0C58.4,392.2,58.4,392.6,58.3,392.8z M57.6,395.8c0.1,0.2,0.1,0.6,0,0.8c-0.6,0-1.3,0-2.1,0
			c0.8,0.2,1.3,0.7,1.3,1.6c0,1.5-1.3,2.4-5.7,2.4s-5.7-0.9-5.7-2.4c0-0.9,0.5-1.4,1.3-1.6c-0.8,0-1.5,0-2.1,0
			c-0.1-0.2-0.1-0.6,0-0.8c1.6,0,3.8,0,6.1,0c0-0.6,0-1.3,0-1.7c0.2-0.1,0.7-0.1,0.9,0c0,0.4,0,1.1,0,1.7
			C53.9,395.7,56.2,395.7,57.6,395.8z M44.7,389.7c1.5-0.6,4.1-1.4,5.9-2c0-0.4,0-0.9,0-1.4c-2.1,0-4.2,0-5.5,0
			c-0.1-0.2-0.1-0.5,0-0.8c2.8-0.1,9.1-0.1,11.9,0c0.1,0.2,0.1,0.5,0,0.8c-1.3,0-3.4,0-5.5,0c0,0.4,0,0.9,0,1.4
			c1.8,0.6,4.4,1.4,5.9,1.9c0,0.3-0.1,0.6-0.3,0.8c-1.6-0.5-4.2-1.3-6.1-2c-2,0.7-4.5,1.6-6.1,2.1C44.8,390.3,44.7,390,44.7,389.7z
			 M51.1,396.6c-3.9,0-4.9,0.5-4.9,1.6c0,1,1,1.6,4.9,1.6s4.9-0.6,4.9-1.6C55.9,397.1,55,396.6,51.1,396.6z"/>
		<path d="M68.8,392.5c0,5.3-1.4,7-4.3,7s-4.3-1.7-4.3-7s1.4-7,4.3-7S68.8,387.1,68.8,392.5z M67.8,392.5c0-4.8-1-6.2-3.4-6.2
			c-2.3,0-3.4,1.3-3.4,6.2s1.1,6.2,3.4,6.2C66.8,398.6,67.8,397.3,67.8,392.5z M74.8,392.4c-0.6,0-1.3,0-2,0c0,3.4,0,6.9,0,8
			c-0.2,0.1-0.6,0.1-0.9,0c-0.1-2.1-0.1-13,0-15.2c0.3-0.1,0.7-0.1,0.9,0c0,0.9,0,3.6,0,6.4c0.7,0,1.4,0,2,0
			C74.8,391.8,74.8,392.1,74.8,392.4z"/>
		<path d="M85.5,387.2c0.1,0.2,0.1,0.6,0,0.8c-1.2,0-8.9,0-10.1,0c-0.1-0.2-0.1-0.6,0-0.8c0.6,0,2.6,0,4.7,0c0-0.8,0-2,0-2.5
			c0.3-0.1,0.6-0.1,0.9,0c0,0.5,0,1.7,0,2.5C83.1,387.2,85,387.2,85.5,387.2z M85.1,394.7c0,3.6-1.3,5-4.5,5c-3.2,0-4.5-1.5-4.5-5
			c0-3.6,1.3-5,4.5-5C83.8,389.7,85.1,391.1,85.1,394.7z M84.2,394.7c0-3.1-1-4.2-3.5-4.2c-2.5,0-3.5,1.1-3.5,4.2
			c0,3.1,1,4.2,3.5,4.2C83.2,398.9,84.2,397.8,84.2,394.7z M90.6,392.7c-0.6,0-1.3,0-2,0c0,3.3,0,6.6,0,7.6c-0.2,0.1-0.6,0.1-0.9,0
			c-0.1-2.1-0.1-13,0-15.2c0.3-0.1,0.7-0.1,0.9,0c0,1,0,3.8,0,6.7c0.7,0,1.4,0,2,0C90.7,392.1,90.7,392.5,90.6,392.7z"/>
		<path d="M91.4,392.6c3.8-0.1,11.1-0.1,14.5,0c0.1,0.2,0.1,0.6,0,0.8c-3.4,0-10.7,0.1-14.5,0C91.4,393.2,91.4,392.9,91.4,392.6z
			 M92.6,395.3c0.2-0.1,0.7-0.1,0.9,0c0,1.2,0,3.4,0,4.3c2.1,0,10,0,11.7,0c0.1,0.2,0.1,0.6,0,0.8c-1.7,0.1-11.1,0.1-12.6,0
			C92.5,399,92.5,396.4,92.6,395.3z M92.7,385.3c0.2-0.1,0.7-0.1,0.9,0c0,1.1,0,3.4,0,4.2c1,0,9.7,0,11.2,0c0,0.2,0,0.5,0,0.7
			c-1.5,0.1-10.3,0.1-12.1,0C92.7,388.8,92.7,386.5,92.7,385.3z"/>
		<path d="M125.4,399.8c-1.9,0.1-12.2,0.1-14.5,0c-0.1-0.3-0.1-0.6,0-0.8c2.3-0.1,12.6,0,14.5,0
			C125.5,399.2,125.5,399.5,125.4,399.8z M112.1,386.8c-0.1-0.2-0.1-0.6,0-0.8c1.8-0.1,10-0.1,12.3,0c0.1,1.8,0.1,8.6,0,10
			c-0.2,0.1-0.6,0.1-0.8,0c0-0.6,0-2.2,0-3.9c-3,0-8.3,0-11.1,0c-0.1-0.2-0.1-0.6,0-0.8c2.8,0,8.1,0,11.1,0c0-2,0-4.1,0-4.6
			C122.1,386.8,113.8,386.8,112.1,386.8z"/>
		<path d="M127.6,392.1c2.2,0,6.2,0,7.2,0c0-1.2,0-4.3,0-5.4c-1.3,0-5.7,0-7.1,0c-0.1-0.2-0.1-0.6,0-0.8c1.5-0.1,5.7-0.1,8,0
			c0.1,1.9,0.1,5,0,7c-1.9,0.1-6,0-7.2,0c0,1.2,0,4.2,0,5.4c1.5,0,7,0,8.4,0c0.1,0.2,0.1,0.6,0,0.8c-1.4,0.1-6.8,0.1-9.3,0
			C127.5,397.1,127.5,394.1,127.6,392.1z M139.7,385.2c0.3-0.1,0.7-0.1,0.9,0c0.1,2.2,0,13.1,0,15.2c-0.2,0.1-0.6,0.1-0.9,0
			C139.7,398.3,139.7,387.4,139.7,385.2z"/>
		<path d="M153.5,385.3c0.1,2.1,0,12.9,0,15c-0.2,0.1-0.6,0.1-0.9,0c0-1.1,0-4.5,0-7.8c-0.9,0-1.7,0-2.6,0v0.1c0,5.9-1.3,7-3.6,7
			c-2.3,0-3.6-1.1-3.6-7s1.3-7,3.6-7c2.2,0,3.5,1,3.6,6.1c0.9,0,1.8,0,2.6,0c0-2.8,0-5.4,0-6.3C152.9,385.2,153.2,385.2,153.5,385.3
			z M149,392.5c0-5.1-0.9-6.2-2.7-6.2c-1.7,0-2.7,1.1-2.7,6.2s0.9,6.2,2.7,6.2C148.1,398.6,149,397.6,149,392.5z M156.7,400.4
			c-0.2,0.1-0.6,0.1-0.9,0c-0.1-2.1-0.1-13,0-15.2c0.3-0.1,0.6-0.1,0.9,0C156.7,387.3,156.7,398.3,156.7,400.4z"/>
		<path d="M158.9,392.5c0-5.3,1.5-7,4.6-7c3.1,0,4.5,1.7,4.5,7s-1.4,7-4.5,7C160.3,399.5,158.9,397.8,158.9,392.5z M167,392.5
			c0-4.8-1.1-6.2-3.6-6.2c-2.5,0-3.6,1.3-3.6,6.2s1.2,6.2,3.6,6.2C165.9,398.6,167,397.3,167,392.5z M171.5,385.2
			c0.3-0.1,0.7-0.1,0.9,0c0.1,2.2,0,13.1,0,15.2c-0.2,0.1-0.6,0.1-0.9,0C171.5,398.3,171.5,387.4,171.5,385.2z"/>
		<path d="M184.3,398.3c0.1,0.2,0.1,0.6,0,0.8c-1.8,0.1-7,0.1-8.9,0c-0.1-1.9-0.1-11.3,0-13.2c1.8-0.1,6.1-0.1,7.9,0
			c0.1,0.2,0.1,0.6,0,0.8c-1.8,0-5.8,0-7,0c0,0.8,0,3.1,0,5.4c1.8,0,4.9,0,6.5,0c0.1,0.2,0.1,0.6,0,0.8c-1.6,0-4.7,0-6.5,0
			c0,2.3,0,4.6,0,5.4C177.5,398.2,182.5,398.2,184.3,398.3z M188.3,400.4c-0.2,0.1-0.6,0.1-0.9,0c0-1.1,0-4.6,0-8
			c-1.3,0-2.5,0-3.5,0c0-0.3,0-0.6,0-0.8c1.1,0,2.3,0,3.5,0c0-2.8,0-5.4,0-6.4c0.3-0.1,0.7-0.1,0.9,0
			C188.3,387.4,188.3,398.3,188.3,400.4z"/>
		<path d="M190.3,398.2c2.2-0.1,9.5-0.1,11.4,0c0.1,0.3,0.1,0.5,0,0.8c-1.9,0.1-9.3,0.1-11.4,0C190.3,398.7,190.3,398.4,190.3,398.2
			z M191.3,389.8c0-2.9,1.3-4.6,4.8-4.6c3.4,0,4.8,1.6,4.8,4.6c0,2.9-1.3,4.6-4.8,4.6C192.6,394.4,191.3,392.7,191.3,389.8z
			 M199.9,389.8c0-2.4-0.9-3.7-3.8-3.7c-2.9,0-3.8,1.3-3.8,3.7c0,2.4,1,3.7,3.8,3.7C199,393.5,199.9,392.2,199.9,389.8z
			 M203.1,385.2c0.3-0.1,0.7-0.1,0.9,0c0.1,2.2,0,13.1,0,15.2c-0.2,0.1-0.6,0.1-0.9,0C203.1,398.3,203.1,387.4,203.1,385.2z"/>
		<path d="M219.7,398.3c0.1,0.2,0.1,0.6,0,0.8c-1.5,0.1-6.8,0.1-8.9,0c-0.1-2.8-0.1-11,0-13.4c0.2-0.1,0.7-0.1,0.9,0
			c0.1,2.4,0,10.6,0,12.6C213.1,398.2,218.2,398.2,219.7,398.3z M224.9,392.4c-0.6,0-1.3,0-2,0c0,3.4,0,6.9,0,8
			c-0.2,0.1-0.6,0.1-0.9,0c-0.1-2.1-0.1-13,0-15.2c0.3-0.1,0.7-0.1,0.9,0c0,0.9,0,3.6,0,6.4c0.7,0,1.4,0,2,0
			C224.9,391.8,224.9,392.1,224.9,392.4z"/>
		<path d="M226.2,393.1c-0.1-1.8-0.1-5.7,0-7.5c1.4-0.1,6.6-0.1,8.1,0c0.1,1.8,0.1,5.9,0,7.5C232.9,393.2,227.8,393.2,226.2,393.1z
			 M239,399.5c0,0.2,0,0.6,0,0.8c-1.9,0.1-8.8,0.1-12,0c-0.1-1.3,0-4.2,0-5.3c0.2-0.1,0.6-0.1,0.9,0c0,1.1,0,3.4,0,4.5
			C230.2,399.5,237.1,399.4,239,399.5z M227,392.3c1.5,0,4.9,0.1,6.4,0c0-1.1,0-4.7,0-5.9c-1.5,0-4.6,0-6.4,0
			C227,387.6,227,391.2,227,392.3z M240.7,390.4c-0.3,0-1.3,0-1.9,0c0,2.2,0,4.5,0,5.7c-0.2,0.1-0.6,0.1-0.9,0c0-2.3,0-8.8,0-11
			c0.3-0.1,0.7-0.1,0.9,0c0,0.9,0,2.6,0,4.5c0.6,0,1.6,0,1.9,0C240.7,389.8,240.7,390.2,240.7,390.4z"/>
		<path d="M241.6,391.5c3.8-0.1,11.1-0.1,14.5,0c0.1,0.2,0.1,0.6,0,0.8c-3.4,0-10.7,0.1-14.5,0C241.5,392.1,241.5,391.7,241.6,391.5
			z M242.5,387.5c0-1.5,1.2-2.4,6.3-2.4c5.1,0,6.3,0.9,6.3,2.4c0,1.5-1.2,2.4-6.3,2.4C243.7,389.9,242.5,389,242.5,387.5z
			 M242.7,396.8h11.4V395h-11.3c-0.1-0.2-0.1-0.7,0-0.8c3-0.1,9.7-0.1,12.2,0c0.1,0.8,0.1,2.8,0,3.5h-11.4v1.9h11.8
			c0.1,0.2,0.1,0.6,0,0.8c-1.1,0.1-10.5,0.1-12.6,0C242.7,399.4,242.6,397.9,242.7,396.8z M254.2,387.5c0-0.9-0.9-1.6-5.4-1.6
			s-5.4,0.6-5.4,1.6c0,1,0.9,1.6,5.4,1.6S254.2,388.4,254.2,387.5z"/>
		<path d="M272.3,394.2c0.1,0.3,0.1,0.5,0,0.8c-0.9,0-3,0-5.2,0c0,1.6,0,3.8,0,5.2c-0.3,0.1-0.6,0.1-0.9,0c0-1.4-0.1-3.6,0-5.2
			c-2.1,0-4.1,0-5.1,0c-0.1-0.3-0.1-0.6,0-0.8C263.2,394.1,270.5,394.1,272.3,394.2z M262.1,389.1c0-2.3,1.3-3.6,4.7-3.6
			c3.4,0,4.7,1.3,4.7,3.6s-1.3,3.6-4.7,3.6C263.4,392.7,262.1,391.4,262.1,389.1z M263,389.1c0,1.7,0.9,2.8,3.7,2.8
			c2.8,0,3.7-1.1,3.7-2.8c0-1.7-0.9-2.8-3.7-2.8C263.9,386.3,263,387.3,263,389.1z M274.8,400.4c-0.2,0.1-0.6,0.1-0.9,0
			c-0.1-2.1-0.1-13,0-15.2c0.3-0.1,0.7-0.1,0.9,0C274.8,387.4,274.8,398.3,274.8,400.4z"/>
		<path d="M276.7,387.6c-0.1-0.2-0.1-0.6,0-0.8c0.6,0,2.6,0,4.7,0c0-0.7,0-1.6,0-2.1c0.3-0.1,0.6-0.1,0.9,0c0,0.4,0,1.4,0,2.1
			c2,0,3.8,0,4.4,0c0.1,0.2,0.1,0.6,0,0.8C285.5,387.6,278,387.6,276.7,387.6z M281.9,395c-3,0-4.5-0.8-4.5-3.2
			c0-2.3,1.5-3.2,4.5-3.2c3,0,4.5,0.8,4.5,3.2C286.4,394.2,284.9,395,281.9,395z M290.3,399.5c0,0.2,0,0.6,0,0.8
			c-1.9,0.1-8.8,0.1-12,0c-0.1-1,0-3.3,0-4.1c0.2-0.1,0.6-0.1,0.9,0c0,0.8,0,2.5,0,3.4C281.5,399.5,288.4,399.4,290.3,399.5z
			 M281.9,394.2c2.6,0,3.6-0.8,3.6-2.4c0-1.6-1-2.4-3.6-2.4s-3.6,0.8-3.6,2.4C278.3,393.4,279.3,394.2,281.9,394.2z M291.9,391.3
			c-0.3,0-1.3,0-1.9,0c0,2.3,0,4.5,0,5.7c-0.2,0.1-0.6,0.1-0.9,0c0-2.5,0-9.4,0-11.8c0.3-0.1,0.7-0.1,0.9,0c0,1.1,0,3.2,0,5.3
			c0.6,0,1.6,0,1.9,0C292,390.7,292,391,291.9,391.3z"/>
		<path d="M311,394.3c-3.4,0-10.7,0.1-14.5,0c-0.1-0.2-0.1-0.6,0-0.8c1.6,0,3.9,0,6.3,0c0-0.8,0-1.8,0-2.7c0.3-0.1,0.6-0.1,0.9,0
			c0,0.8,0,1.9,0,2.7c2.8,0,5.6,0,7.3,0C311,393.7,311,394.1,311,394.3z M310.2,399.6c0.1,0.2,0.1,0.6,0,0.8
			c-1.7,0.1-11.1,0.1-12.6,0c-0.1-1.1-0.1-3.3,0-4.2c0.2-0.1,0.7-0.1,0.9,0c0,0.9,0,2.7,0,3.5C300.6,399.5,308.5,399.5,310.2,399.6z
			 M297.8,386.3c-0.1-0.2-0.1-0.6,0-0.8c1.6-0.1,9.6-0.1,11.7,0c0.1,2.1,0.1,4.8,0,6.6c-0.2,0.1-0.7,0.1-0.8,0c0-0.8,0-1.7,0-2.7
			c-2.9,0-8,0-10.7,0c-0.1-0.2-0.1-0.6,0-0.8c2.7,0,7.8,0,10.7,0c0-1,0-1.9,0-2.4C307.4,386.3,299.4,386.3,297.8,386.3z"/>
		<path d="M312.8,393.4c-0.1-2.1-0.1-5.7,0-7.7c1.2-0.1,5.4-0.1,6.7,0c0.1,0.2,0.1,0.5,0,0.7c-1.2,0-4.8,0-5.8,0c0,0.7,0,1.7,0,2.7
			c1.5,0,3.8,0,5.1,0c0.1,0.2,0.1,0.6,0,0.8c-1.3,0-3.6,0-5.1,0c0,1.1,0,2.1,0,2.7c1,0,5.1,0,6.3,0c0.1,0.2,0.1,0.6,0,0.8
			C318.7,393.5,314.1,393.4,312.8,393.4z M326.6,400.3c-2,0.1-9.2,0.1-12.5,0c-0.1-1.2,0-3.8,0-4.8c0.2-0.1,0.6-0.1,0.9,0
			c0,1,0,3,0,4c2.4,0,9.6,0,11.6,0C326.7,399.7,326.7,400,326.6,400.3z M322.2,389.2c0-1.8,0-3.3,0-3.9c0.3-0.1,0.6-0.1,0.9,0
			c0.1,1.6,0,9.5,0,11c-0.2,0.1-0.6,0.1-0.9,0c0-0.8,0-3.7,0-6.3c-0.8,0-2.3,0-2.8,0c0-0.3,0-0.6,0-0.8
			C320,389.1,321.4,389.1,322.2,389.2z M325.5,396.4c-0.1-1.5-0.1-9.6,0-11.2c0.3-0.1,0.6-0.1,0.9,0c0.1,1.6,0,9.7,0,11.2
			C326.1,396.5,325.8,396.5,325.5,396.4z"/>
		<path d="M342.7,399.8c-1.9,0.1-12.2,0.1-14.5,0c-0.1-0.3-0.1-0.6,0-0.8c2.3-0.1,12.6,0,14.5,0
			C342.8,399.2,342.8,399.5,342.7,399.8z M328.9,394.3c1.6-1,4.3-2.5,6.1-3.6c0-0.8,0-1.9,0-2.6c-2.2,0-4.4,0-5.7,0
			c-0.1-0.2-0.1-0.6,0-0.8c1.4,0,3.5,0,5.7,0c0-0.7,0-1.8,0-2.2c0.3-0.1,0.6-0.1,0.9,0c0,0.4,0,1.5,0,2.2c2.2,0,4.4,0,5.8,0
			c0.1,0.2,0.1,0.6,0,0.8c-1.4,0-3.5,0-5.8,0c0,0.7,0,1.8,0,2.6c1.8,1,4.6,2.6,6.2,3.6c-0.1,0.3-0.3,0.6-0.5,0.7
			c-1.6-0.9-4.3-2.4-6.1-3.5c-1.8,1.1-4.6,2.7-6.1,3.6C329.2,394.8,328.9,394.5,328.9,394.3z"/>
		<path d="M345.2,398.4c0.5,0,0.7,0,1.2,0c0,0.6,0,0.8,0,1.4c-0.5,0.1-0.7,0.1-1.2,0C345.2,399.3,345.2,398.9,345.2,398.4z
			 M345.2,385.6c0.4-0.1,0.7-0.1,1.1,0c0,1.6-0.1,8.9-0.1,10.3c-0.2,0.1-0.6,0.1-0.9,0C345.3,394.5,345.3,387.2,345.2,385.6z"/>
	</g>
	<g>
		<path d="M109.3,351.3c-5.6,0.2-31.8,0.2-38.7,0c-0.1-1.2-0.1-3.3,0-4.6c3.6-0.1,9.1-0.1,14.9-0.1c0-2.1,0-4.6,0.1-5.7
			c1.2-0.2,4.1-0.2,5.4,0c0,1.2,0,3.6,0,5.7c7.8,0,15.3,0,18.2,0.1C109.4,347.9,109.4,349.8,109.3,351.3z M107.5,361.5
			c0.2,1.3,0.2,3.3,0,4.6c-3.9,0.2-30.2,0.2-34.2,0c-0.2-3.2-0.1-9,0-11.6c1.1-0.1,4.1-0.1,5.4,0c0.1,2.3,0.1,5,0,7
			C87.2,361.4,103.8,361.4,107.5,361.5z M73.8,330.5c-0.2-1.4-0.2-3.1,0-4.4c3.8-0.2,27.3-0.2,32,0c0.2,4.4,0.2,14.8,0,17.8
			c-1,0.1-4.3,0.1-5.3,0c0-1.3,0-3.2,0-5.3c-9.1,0-22.2,0.1-26.2,0c-0.2-1.4-0.2-3,0-4.4c3.6-0.1,17.3-0.1,26.2,0c0-1.6,0-2.9,0-3.8
			C92.6,330.6,77.4,330.7,73.8,330.5z"/>
		<path d="M113.2,348.6c-0.3-4.5-0.2-17.7,0-22.1c3.8-0.2,14-0.1,17.7,0c0.2,1.2,0.2,3,0,4.3c-2.9,0.1-9.5,0-12.5,0
			c0,1.1,0,2.7,0,4.5c3.4,0,7.5,0,10.7,0c0.2,1.4,0.1,2.9,0,4.3c-3.2,0.1-7.2,0.1-10.7,0c0,1.8,0,3.5,0,4.5c3,0,10.9-0.1,13.9,0
			c0.2,1.4,0.2,3,0,4.4C128.8,348.8,117.3,348.8,113.2,348.6z M150.7,366.1c-4.1,0.2-28.4,0.2-34,0c-0.2-3.3-0.1-10.8,0-13.4
			c1.1-0.1,3.9-0.1,5.3,0c0.1,2.4,0.1,6.3,0,8.9c8.8,0,24.8-0.1,28.7,0C150.8,362.7,150.8,364.7,150.7,366.1z M136,335
			c0-4.3,0-8,0.1-9.2c1-0.2,3.9-0.2,5,0c0.1,4,0,25.2,0,29.2c-1,0.1-3.7,0.1-5,0c-0.1-2.1-0.1-8.7-0.1-15.2c-1.9,0-3.9,0-5.1-0.1
			c-0.1-1.4-0.1-3.3,0-4.6C131.9,335,134,335,136,335z M144.9,355.3c-0.1-4.1-0.1-26.4,0-29.7c1-0.2,3.9-0.2,5,0
			c0.1,4,0.1,25.7,0,29.7C148.9,355.5,146.2,355.4,144.9,355.3z"/>
		<path d="M192.6,364.8c-4.3,0.3-33,0.2-38.7,0c-0.1-1.3-0.1-3.2,0-4.6c8.3-0.1,34.1-0.1,38.7,0
			C192.7,361.5,192.7,363.3,192.6,364.8z M155.3,348.2c3.8-2.1,10.1-5.5,15.2-8.2c0-2-0.1-3.8,0-5.3c-6.2,0-12,0-14-0.1
			c-0.2-1.4-0.2-3.4,0-4.8c2.3,0,7.9-0.1,14-0.1c0-1.7,0-3.5,0.1-4.9c1.6-0.1,4.3-0.1,5.5,0c0.1,1.4,0.1,3.2,0.1,4.9
			c5.5,0,10.9,0,14.1,0.1c0.1,1.4,0.1,3.5,0,4.8c-2.4,0-8,0.1-14.1,0.1c0,1.5,0,3.3,0,5.2c5.1,2.6,11.5,5.8,15.3,7.8
			c-0.4,1.3-1.7,3.5-2.5,4.3c-3.1-1.5-10.1-4.9-15.5-7.8c-5.4,3-12.3,6.6-15.4,8.2C157.1,351.7,155.6,349.4,155.3,348.2z"/>
		<path d="M207.8,347c-1-0.7-2.7-2.6-3.3-3.8c3.3-3.1,7.3-6.8,10.9-10c0-2.3,0-5.3,0-7.2c1-0.2,4.2-0.2,5.5,0c0,1.9,0,4.9,0,7.2
			c3.7,2.8,7.8,6,11.2,8.6c-0.5,1.2-2,3.3-2.9,4c-3.3-2.4-7.5-5.6-11-8.5C214.9,340.7,210.9,344.3,207.8,347z M241.2,357.8
			c0,6.4-4.1,8.9-17.2,8.9c-13.5,0-17.2-2.9-17.2-8.9c0-6.3,4.1-8.9,17.2-8.9C237.6,348.9,241.2,351.9,241.2,357.8z M235.9,357.8
			c0-2.7-1.5-4.3-11.8-4.3s-11.8,1.5-11.8,4.3c0,2.8,1.5,4.3,11.8,4.3C234.4,362.2,235.9,360.7,235.9,357.8z M244.8,338.2
			c-0.8,0-2.4,0.1-4.3,0.1c0,3.8,0,7.4-0.1,9.4c-1.1,0.2-3.9,0.1-5.3,0c-0.1-4.1-0.1-18.4,0-22.1c1-0.2,4-0.2,5.3,0
			c0,1.8,0,4.6,0.1,7.8c1.7,0,3.3,0,4.3,0C245,334.8,245,336.8,244.8,338.2z"/>
		<path d="M259.6,341.2c-3.3,2.4-7,5-10.1,7.1c-0.9-0.8-2.4-2.7-2.9-3.9l10.1-7.2v-6.1c-4.1,0-7.8,0-9.2-0.1c-0.2-1.4-0.2-3.3,0-4.5
			c3.4-0.1,17.4-0.2,23.8,0c0.1,1.3,0.1,3.3,0,4.5c-1.6,0-5.2,0-9,0.1v5.9l10.4,5.9c-0.5,1.2-1.7,3.3-2.6,4.2
			C266.6,345.3,263,343.2,259.6,341.2z M283.4,366c-4,0.3-28.2,0.3-32.6,0c-0.2-4.9-0.1-11.2,0-15.9c3.9-0.1,29.7-0.1,32.6,0
			C283.6,354.2,283.6,362.2,283.4,366z M278.2,354.6c-2.9-0.1-18.9-0.1-22.1,0c-0.1,1.9-0.1,4.8,0,6.9c2.6,0.1,19.6,0.1,22.1,0
			C278.3,359.8,278.3,356.7,278.2,354.6z M278,333.8c0-3.5,0-6.7,0.1-8.2c1-0.2,4-0.2,5.3,0c0.1,4.8,0.1,17.8,0,22.4
			c-1.1,0.2-3.9,0.1-5.3,0c0-1.8-0.1-5.3-0.1-9.2c-2.7,0-6,0-7.4-0.1c-0.1-1.4-0.1-3.5,0-4.8C272,333.8,275.3,333.8,278,333.8z"/>
	</g>
	<g>
		<circle class="st0" cx="32.3" cy="72.5" r="28"/>
		<circle class="st0" cx="145.4" cy="12.5" r="11.5"/>
		<g>
			<g>
				<circle class="st1" cx="51.2" cy="211.9" r="6.4"/>
				<path class="st2" d="M167.7,107.5c-48.5,0-87.8,39.3-87.8,87.8c0,48.5,39.3,87.8,87.8,87.8h87.8v-87.8
					C255.5,146.8,216.2,107.5,167.7,107.5z"/>
				<path class="st3" d="M167.7,107.5c-48.5,0-87.8,39.3-87.8,87.8c0,48.5,39.3,87.8,87.8,87.8h87.8v-87.8
					C255.5,146.8,216.2,107.5,167.7,107.5z"/>
				<g>
					<defs>
						<path id="SVGID_1_" d="M167.7,107.5c-48.5,0-87.8,39.3-87.8,87.8c0,48.5,39.3,87.8,87.8,87.8h87.8v-87.8
							C255.5,146.8,216.2,107.5,167.7,107.5z"/>
					</defs>
					<clipPath id="SVGID_2_">
						<use xlink:href="#SVGID_1_"  style="overflow:visible;"/>
					</clipPath>
					<g class="st4">
						<path class="st5" d="M205.5,174.8c1.7-2.7,4.4-4.7,7.5-5.6c3.1-0.9,6.5-0.6,9.3,0.8c1.4,0.7,2.7,1.6,3.5,2.8
							c1.1,1.6,1.4,3.5,1.7,5.4c0.1,0.8,0.2,1.6,0.5,2.3c0.6,1.5,2.1,2.4,3.4,3.2c1.4,0.8,2.6,1.7,3.9,2.6c2.9,2.2,5.7,4.6,8.2,7.3
							c5.9,6.1,11.4,13.5,14.9,21.3c2.2,5,4,11.3,5.2,17.5c1.1,6.1,1.4,12.2,1.2,18.4c-0.1,3-0.3,5.9-0.7,8.9
							c-1.2,10-3.9,19.8-7.6,29.2c-1.9,4.7-4,9.3-6.4,13.8c-2.1,4-4.1,8.6-7.4,11.8c-2.7,2.7-7.3,4.1-10.9,5.4
							c-5.3,1.9-10.7,3.4-16.2,4.3c-11.1,2.5-28.9,1.3-28.9,1.3c-10.2,0-20.4-0.6-30.5-1.6l-10.1-0.7c-6-0.6-11.8-4.3-14.2-9.8
							c-2.4-5.5-1-12.7,3.9-16.2c1.1-0.8,2.4-1.4,3.7-1.9c1.2-0.4,4,0.5,3.8-0.8c-3.3-17.2,0.4-35.3,0.4-35.3
							c-4.3-1.2-8-4.4-9.7-8.6c-1.7-4.1-1.3-9.1,1.1-12.8c2.4-3.7,6.9-6.1,11.4-5.9c0,0-1.9-21.4,9.1-41.5c-0.4-2.1,0.1-5.2,0.1-5.2
							c-0.3-3.4,0.6-6.8,2.6-9.5c2-2.7,5-4.6,8.3-5.3c4.3-0.9,9.3,0.7,11.2,4.6c0.2,0.4,0.3,0.8,0.7,1c0.4,0.3,1,0.2,1.5,0.1
							c8.3-1.6,16.8-2,25.2-1.2"/>
						<path class="st6" d="M226.8,321.5c-0.3-0.2-0.5-0.5-0.6-1c-0.3-1.7,0.1-3.6,0.4-5.2c1.3-7,7.5-9.6,14.1-9
							c1.6,0.1,5.8,0.3,6,2.6c0.1,1.7-2.8,4.6-3.9,5.5c-3.6,3-7.6,4.8-12,6.4C229.5,321.3,227.7,322.2,226.8,321.5"/>
						<path class="st6" d="M160.1,324.1c0,0-3.2-2-2.5-6.3c0.8-4.4,13.6-15.5,35.1-13.2c-1.2,5.1-1.3,16,5.6,17.4
							C203,325.4,175.7,326.2,160.1,324.1"/>
						<path class="st6" d="M250,212.8c-1.6-8.9-6.1-16-12.2-22.6c-3-3.3-7.8-6.2-9.6-10.3c-0.8-1.8-0.8-3.8-2-5.6
							c-1.9-3-5.1-4.6-8.3-5.7c-5.8-2-9.6,2.8-12.8,7.2c-16.3-3.1-26.8,1.6-26.8,1.6s-3.5-10-12.7-7.1c-14,3.9-10.2,20.1-10.2,20.1
							c-3.6,4.2-9.5,23.4-9.2,34.4c0,1-0.8,6.1,0.2,7.1c3.2-4,9.6-5,14.3-3.8c4.7,1.1,7.5,5.5,9.2,9.8c2.3,5.6,6.8,9.6,12.4,11.7
							c4.7,1.7,9.8,2.2,14.7,2c3.7-0.1,7.5-0.3,10.9-1.9c1.7-0.8,3.3-1.8,4.6-3.1c2.3-2,3.7-5.1,6.4-6.6c3.6-1.9,8.3-0.1,11.9,0.7
							c5.9,1.3,10.3-1.2,14.2-6.2C250.3,228.4,251.4,220.4,250,212.8"/>
						<path class="st6" d="M146.7,232c-0.1,0-0.1-0.1-0.1-0.1c-0.1,0.2-0.3,0.4-0.4,0.5L146.7,232z"/>
						<path d="M158.3,185.1c-0.3-4.7,1.8-9,6-11.3c3.2-1.7,8-1.8,10.5,1.2c1.4,1.8,2,3.7,4.7,3.6c2.7-0.1,5.4-0.9,8.1-1.2
							c5.9-0.6,11.7-0.6,17.6-0.1c3.4,0.3,3.4-5,0-5.3c-6.6-0.6-13.3-0.5-19.9,0.4c-1.5,0.2-3,0.4-4.5,0.7c-0.5,0.1-1,0.2-1.5,0.3
							c0.7,0.3,1,0.3,0.7-0.1c0.1-0.3-0.9-1.4-1.1-1.6c-1.4-1.8-3.4-3-5.6-3.7c-10.7-3.5-21,6.4-20.3,17.1
							C153.3,188.5,158.5,188.5,158.3,185.1"/>
						<path d="M143.3,291.7c-4.7,0.5-9.2,2.4-12.1,6.3c-2.4,3.3-3.4,7.6-2.9,11.6c1.1,9.1,9.2,15,17.9,16.1c1.4,0.2,2.6-1.3,2.6-2.6
							c0-1.6-1.2-2.5-2.6-2.6c-5.8-0.7-11.7-4.9-12.6-11c-1-6.5,3.4-11.7,9.8-12.5C146.6,296.6,146.6,291.3,143.3,291.7"/>
						<path d="M156.2,326.4c10.1,1,20.3,1.5,30.5,1.6c3.4,0,3.4-5.2,0-5.3c-10.2-0.1-20.4-0.6-30.5-1.6
							C152.9,320.8,152.9,326.1,156.2,326.4"/>
						<path d="M207.4,319.9c-3.4,0.2-7.1-0.2-9.7-2.6c-2-1.8-3.2-4.4-3.4-7.1c-0.4-6,5.1-10.6,10.8-10.3c3.4,0.2,3.4-5.1,0-5.3
							c-8.5-0.4-16.6,6.8-16.1,15.5c0.2,4,2,8,5,10.8c3.7,3.4,8.6,4.4,13.4,4.1C210.8,325,210.8,319.8,207.4,319.9"/>
						<path d="M215.7,326.7c6.1-0.5,12-2.1,17.6-4.6c3.1-1.4,0.4-5.9-2.7-4.5c-4.7,2.1-9.8,3.5-14.9,3.9
							C212.3,321.7,212.3,327,215.7,326.7"/>
						<path d="M181.8,199.1c-0.1-0.2-0.2-0.4-0.3-0.6c-0.1-0.2-0.2-0.4-0.3-0.6c-0.4-0.7-1.1-1.2-1.9-1.4c-0.3,0-0.5-0.1-0.8-0.1
							c-0.6,0-1.1,0.1-1.6,0.4c-0.3,0.1-0.6,0.4-0.9,0.6c-0.3,0.2-0.5,0.6-0.7,0.9c-0.6,0.9-0.6,1.9-0.4,2.9
							c0.1,0.7,0.6,1.4,1.1,1.9c1,1,2.7,1.4,4,0.6c0.8-0.5,1.4-1.4,1.7-2.3C182,200.7,182,199.8,181.8,199.1"/>
						<path d="M198.8,206.8c-1.4,1.5-6.4,2.6-7.6,0.4c-1.7-3.1-6.4-0.3-4.7,2.7c3,5.4,12.2,4.7,16.1,0.7
							C205,208.1,201.2,204.3,198.8,206.8"/>
						<path d="M200.6,216.2c-0.8-1.7-1.6-3.3-2.5-5c-0.7-1.2-2.2-1.6-3.4-1.1c-0.4,0.1-0.8,0.3-1.1,0.6c-0.9,0.9-1.8,1.8-2.6,2.7
							c-1,1.2-2,2.3-2.2,3.9c-0.1,1.5,1.3,2.7,2.7,2.7c1.2,0,2.1-0.8,2.5-1.8c0.2-0.4,0.7-0.8,1.1-1.3c0.3,0.6,0.6,1.3,0.9,1.9
							c0.6,1.3,2.5,1.7,3.7,1C201,219.1,201.2,217.6,200.6,216.2"/>
						<path d="M212.4,196.4c-0.8-0.5-1.7-0.6-2.6-0.4c-1.1,0.3-1.9,1.1-2.2,2.2c-0.1,0.2-0.1,0.4-0.1,0.6c-0.1,0.7-0.1,1.4,0.2,2
							c0.4,1.1,1.1,2.1,2.3,2.3c1.3,0.3,2.8-0.3,3.4-1.5c0.4-0.7,0.7-1.5,0.6-2.3C213.9,198.1,213.3,197.1,212.4,196.4"/>
						<path d="M207.8,176.1c3-4.4,9-6.2,13.8-3.6c2.3,1.2,3,3.2,3.4,5.7c0.4,2.9,1.2,5,3.7,6.8c2.2,1.6,4.5,2.8,6.6,4.5
							c2.3,1.8,4.4,3.8,6.5,5.9c4.1,4.2,7.8,8.9,10.9,14c12.3,20.4,11.7,46.5,5,68.6c-3.8,12.5-9.7,24.3-16.6,35.3
							c-1.8,2.9,2.7,5.5,4.5,2.7c13.6-21.6,22.9-46.3,22-72.1c-0.5-12.9-3.6-26-10.3-37.1c-3.3-5.4-7.3-10.5-11.7-15
							c-2.3-2.4-4.8-4.6-7.3-6.6c-1.2-0.9-2.3-1.8-3.6-2.7c-1.1-0.8-2.7-1.3-3.6-2.4c-1-1.1-0.8-2.8-1.1-4.1
							c-0.3-1.5-0.8-3.1-1.7-4.4c-1.7-2.6-4.7-4.2-7.7-5c-6.7-1.6-13.4,1.3-17.3,6.9C201.3,176.3,205.9,178.9,207.8,176.1"/>
						<path class="st5" d="M214.6,262.3c-4.8-0.9-9-4.7-10.4-9.4c-1.4-4.7-0.1-10.1,3.4-13.6c3.5-3.5,8.9-4.8,13.6-3.4
							c0,0,14,6.1,19.1,3.4c5.1-2.8-4.1,27.2-4.1,27.2L214.6,262.3z"/>
						<path class="st5" d="M214.6,262.3c-4.8-0.9-9-4.7-10.4-9.4c-1.4-4.7-0.1-10.1,3.4-13.6c3.5-3.5,8.9-4.8,13.6-3.4"/>
						<path d="M215.3,259.8c-6-1.3-10.1-7-8.8-13.1c1.4-6.3,7.8-9.9,14-8.2c3.3,0.9,4.7-4.2,1.4-5.1c-8.8-2.5-18.3,2.8-20.4,11.9
							c-2,8.8,3.6,17.7,12.4,19.6C217.2,265.6,218.6,260.5,215.3,259.8"/>
						<path d="M146.5,229.2c-8.5-0.2-15.4,6.4-16.1,14.8c-0.7,8.2,5,15.3,12.6,17.7c3.2,1,4.6-4.1,1.4-5.1c-5.3-1.6-9-6.4-8.8-12
							c0.2-5.8,5.1-10.3,10.9-10.1C149.9,234.5,149.9,229.3,146.5,229.2"/>
					</g>
				</g>
				<circle class="st7" cx="102.1" cy="136.8" r="19.1"/>
				<g>
					<path class="st7" d="M230.7,91.6h-7c-1.5,0-2.6-1.2-2.6-2.6V69.6c0-1.5,1.2-2.6,2.6-2.6h7c1.5,0,2.6,1.2,2.6,2.6V89
						C233.4,90.4,232.2,91.6,230.7,91.6z"/>
					<path class="st7" d="M265.7,133.5v-7c0-1.5,1.2-2.6,2.6-2.6h19.3c1.5,0,2.6,1.2,2.6,2.6v7c0,1.5-1.2,2.6-2.6,2.6h-19.3
						C266.8,136.2,265.7,135,265.7,133.5z"/>
					<path class="st7" d="M256.9,105.3l-5-5c-1-1-1-2.7,0-3.7L265.6,83c1-1,2.7-1,3.7,0l5,5c1,1,1,2.7,0,3.7l-13.7,13.7
						C259.6,106.4,257.9,106.4,256.9,105.3z"/>
				</g>
			</g>
		</g>
	</g>
	<rect x="253" y="215" class="st5" width="20" height="75"/>
	<polygon class="st5" points="256,292 142,292 142,279 256,269 	"/>
	<circle class="st8" cx="263" cy="246.2" r="24"/>
</g>
<g id="Layer_3">
	<rect x="-500" y="486" width="1364" height="572"/>
	<rect x="-500" y="-606" width="1364" height="572"/>
	<rect x="42" y="8" transform="matrix(-1.836970e-16 1 -1 -1.836970e-16 1018 -430)" width="1364" height="572"/>
	<rect x="-1050" y="-96" transform="matrix(-1.836970e-16 1 -1 -1.836970e-16 -178 558)" width="1364" height="572"/>
</g>
</svg>
