<svg xmlns="http://www.w3.org/2000/svg" id="구성_요소_18_1" width="441" height="286" viewBox="0 0 441 286">
    <defs>
        <style>
            .cls-2{fill:#fff}.cls-3{fill:#ff8085}.cls-4{fill:#e167e5}.cls-6{fill:#ffab31}
        </style>
    </defs>
    <g id="Layer_2">
        <g id="그룹_15">
            <path id="패스_1" fill="#00bfff" d="M197.361 25.5C127.556 25.5 71.1 81.807 71.1 151.118s56.6 125.618 126.261 125.618h126.261V151.118c0-69.449-56.456-125.618-126.261-125.618z" transform="translate(-12.836 9.264)"/>
            <g id="그룹_10" transform="translate(111.387 108.79)">
                <path id="패스_2" d="M155.734 110.633c-6.675.278-38.1.278-46.305 0a35.3 35.3 0 0 1 0-5.423c4.311-.139 10.985-.139 17.938-.139 0-2.5 0-5.423.139-6.814a24.624 24.624 0 0 1 6.4 0v6.814c9.317 0 18.216 0 21.831.139a35.247 35.247 0 0 1-.003 5.423zm-2.086 12.237a18.637 18.637 0 0 1 0 5.562c-4.728.278-36.154.278-41.021 0-.278-3.894-.139-10.707 0-13.905a49.037 49.037 0 0 1 6.4 0 83.368 83.368 0 0 1 0 8.343c10.287 0 30.173-.139 34.621 0zm-40.464-37.127a16.832 16.832 0 0 1 0-5.284c4.589-.278 32.817-.278 38.24 0 .278 5.284.278 17.8 0 21.414a46.968 46.968 0 0 1-6.257 0v-6.258c-10.846 0-26.559.139-31.426 0a16.838 16.838 0 0 1 0-5.284c4.311-.139 20.719-.139 31.426 0v-4.45c-9.456.001-27.673.001-31.983-.138z" class="cls-2" transform="translate(-109.325 -78.964)"/>
                <path id="패스_3" d="M146.159 107.591c-.278-5.423-.278-21.275 0-26.42 4.45-.278 16.826-.139 21.275 0a15.967 15.967 0 0 1 0 5.145c-3.476.139-11.4 0-15.018 0v5.423h12.793a21.23 21.23 0 0 1 0 5.145c-3.894.139-8.621.139-12.793 0v5.423c3.615 0 13.071-.139 16.547 0a16.836 16.836 0 0 1 0 5.284c-4.171.278-17.938.278-22.804 0zm44.775 20.858c-4.867.278-34.068.278-40.743 0-.278-3.894-.139-12.932 0-16.13a46.975 46.975 0 0 1 6.257 0c.139 2.781.139 7.648 0 10.568 10.568 0 29.619-.139 34.485 0a18.638 18.638 0 0 1 .001 5.562zm-17.521-37.127c0-5.145 0-9.595.139-11.124a21.531 21.531 0 0 1 5.979 0c.139 4.728 0 30.175 0 35.042a42.852 42.852 0 0 1-5.979 0c-.139-2.5-.139-10.429-.139-18.216-2.225 0-4.728 0-6.118-.139a37.134 37.134 0 0 1 0-5.562zm10.707 24.334c-.139-4.867-.139-31.565 0-35.6a21.53 21.53 0 0 1 5.979 0c.139 4.728.139 30.731 0 35.6a28.612 28.612 0 0 1-5.979 0z" class="cls-2" transform="translate(-95.021 -79.12)"/>
                <path id="패스_4" d="M227.534 127.264c-5.145.278-39.63.278-46.305 0a37.116 37.116 0 0 1 0-5.562c10.012-.139 40.882-.139 46.305 0a37.077 37.077 0 0 1 0 5.562zm-44.775-19.885c4.589-2.5 12.1-6.536 18.216-9.873 0-2.5-.139-4.45 0-6.257-7.37 0-14.323 0-16.826-.139a19.576 19.576 0 0 1 0-5.7c2.642 0 9.456-.139 16.826-.139 0-2.086 0-4.172.139-5.84a53.329 53.329 0 0 1 6.675 0c.139 1.669.139 3.754.139 5.84 6.675 0 13.071 0 16.826.139a39 39 0 0 1 0 5.7c-2.92 0-9.595.139-16.826.139v6.257c6.118 3.059 13.766 6.953 18.355 9.317a13.7 13.7 0 0 1-3.059 5.145c-3.754-1.808-12.1-5.979-18.633-9.317-6.536 3.615-14.74 7.926-18.494 9.873a15.621 15.621 0 0 1-3.338-5.145z" class="cls-2" transform="translate(-81.284 -79.325)"/>
                <path id="패스_5" d="M148.794 152.445a19.906 19.906 0 0 1-3.894-4.45c3.894-3.754 8.76-8.2 13.071-11.959v-8.621a25.676 25.676 0 0 1 6.536 0v8.621c4.45 3.337 9.317 7.092 13.488 10.29a20.6 20.6 0 0 1-3.476 4.867c-3.894-2.781-8.9-6.675-13.21-10.151-4.172 3.894-8.9 8.204-12.515 11.403zm39.906 13.071c0 7.648-4.867 10.707-20.58 10.707-16.269 0-20.58-3.476-20.58-10.707 0-7.648 4.867-10.568 20.58-10.568 16.271-.14 20.58 3.476 20.58 10.568zm-6.4 0c0-3.2-1.808-5.145-14.184-5.145s-14.184 1.808-14.184 5.145 1.808 5.145 14.184 5.145 14.19-1.808 14.19-5.145zm10.707-23.5c-.973 0-2.92.139-5.145.139 0 4.589 0 8.9-.139 11.263a31.36 31.36 0 0 1-6.257 0c-.139-4.867-.139-21.971 0-26.559a23.543 23.543 0 0 1 6.257 0c0 2.086 0 5.562.139 9.317h5.145a40.925 40.925 0 0 1 .006 5.839z" class="cls-2" transform="translate(-95.431 -60.843)"/>
                <path id="패스_6" d="M196.674 145.531c-3.894 2.92-8.343 5.979-12.1 8.482a17.36 17.36 0 0 1-3.476-4.728l12.1-8.621v-7.231c-4.867 0-9.317 0-10.985-.139a17.724 17.724 0 0 1 0-5.423c4.033-.139 20.858-.278 28.506 0a35.3 35.3 0 0 1 0 5.423c-1.947 0-6.118 0-10.846.139v7.092l12.376 7.092a22.993 22.993 0 0 1-3.059 5.006c-4.173-2.086-8.483-4.589-12.516-7.092zm28.506 29.758c-4.867.278-33.79.417-38.935 0-.278-5.84-.139-13.349 0-19.05 4.728-.139 35.6-.139 38.935 0 .139 4.861.139 14.461 0 19.049zm-6.257-13.627c-3.476-.139-22.666-.139-26.559 0a83.368 83.368 0 0 0 0 8.343c3.2.139 23.5.139 26.559 0zm-.278-25.03c0-4.172 0-8.065.139-9.873a23.544 23.544 0 0 1 6.257 0c.139 5.7.139 21.414 0 26.837a31.357 31.357 0 0 1-6.257 0c0-2.086-.139-6.4-.139-10.985-3.2 0-7.231 0-8.9-.139a40.93 40.93 0 0 1 0-5.84z" class="cls-2" transform="translate(-81.294 -60.882)"/>
            </g>
            <path id="패스_7" d="M276.193 81.125l-3.476-17.1a20.4 20.4 0 0 0-15.852-15.852l-16.965-3.48 17.1-3.476a20.4 20.4 0 0 0 15.852-15.852l3.48-16.965 3.476 17.1a20.4 20.4 0 0 0 15.852 15.852l16.965 3.476-17.1 3.476a20.4 20.4 0 0 0-15.852 15.852z" class="cls-3" transform="translate(53.024 2.585)"/>
            <path id="패스_8" d="M54.369 148.755L52 136.8a14.127 14.127 0 0 0-10.98-11.128l-11.82-2.5 11.959-2.372a14.127 14.127 0 0 0 11.124-10.98L54.786 98l2.364 11.959a14.127 14.127 0 0 0 10.985 11.124l11.82 2.5-12.1 2.225A14.127 14.127 0 0 0 56.733 136.8z" class="cls-4" transform="translate(-29.2 36.841)"/>
            <path id="패스_9" fill="#66f" d="M322.21 226.943h-65.077A27.506 27.506 0 0 1 229.6 199.41v-65.077a27.506 27.506 0 0 1 27.533-27.533h65.077a27.506 27.506 0 0 1 27.533 27.533v65.077a27.6 27.6 0 0 1-27.533 27.533z" transform="translate(48.985 39.729)"/>
            <circle id="타원_2" cx="28.784" cy="28.784" r="28.784" class="cls-3" transform="translate(51.311 190.609)"/>
            <path id="패스_10" d="M158.177 82.806H80.446A19.822 19.822 0 0 1 60.7 63.061V50.546A19.822 19.822 0 0 1 80.446 30.8h77.731a19.822 19.822 0 0 1 19.746 19.746v12.515a19.822 19.822 0 0 1-19.746 19.745z" class="cls-4" transform="translate(-16.898 11.333)"/>
            <path id="패스_11" d="M224.02 52.506H114.446A19.822 19.822 0 0 1 94.7 32.761V20.246A19.822 19.822 0 0 1 114.446.5H224.02a19.822 19.822 0 0 1 19.746 19.746v12.515a19.822 19.822 0 0 1-19.746 19.745z" class="cls-6" transform="translate(-3.644 -.5)"/>
            <g id="그룹_11" transform="translate(105.099 14.879)">
                <path id="패스_12" d="M104.8 22.046c0-7.648 3.476-10.846 8.76-10.846 2.642 0 4.589.556 6.4 2.5a7.074 7.074 0 0 1-1.808 2.225 6.2 6.2 0 0 0-4.589-1.669c-3.337 0-5.7 2.225-5.7 7.926 0 5.84 2.364 7.926 5.84 7.926a6.894 6.894 0 0 0 4.867-1.669 7.074 7.074 0 0 1 1.808 2.225 8.9 8.9 0 0 1-6.675 2.5c-5.566-.133-8.903-3.47-8.903-11.118z" class="cls-2" transform="translate(-104.8 -11.2)"/>
                <path id="패스_13" d="M116.9 22.046c0-7.648 3.059-10.846 8.76-10.846s8.76 3.337 8.76 10.846c0 7.787-3.2 10.846-8.76 10.846-5.701.139-8.76-3.198-8.76-10.846zm14.462 0c0-5.423-1.669-8.065-5.7-8.065-3.754 0-5.7 2.225-5.7 8.065s1.947 8.065 5.7 8.065c3.614 0 5.7-2.085 5.7-8.065z" class="cls-2" transform="translate(-100.074 -11.2)"/>
                <path id="패스_14" d="M131.539 11.429a11.153 11.153 0 0 1 3.059 0c2.086 3.337 7.37 12.654 8.9 15.435-.139-2.225-.139-12.793 0-15.435a11.218 11.218 0 0 1 3.059 0v21.137a11.217 11.217 0 0 1-3.059 0c-1.808-2.92-7.37-12.654-9.039-15.713.139 2.642.139 13.349 0 15.713a11.269 11.269 0 0 1-3.059 0c.139-4.033.139-16.548.139-21.137z" class="cls-2" transform="translate(-94.412 -11.151)"/>
                <path id="패스_15" d="M158.869 14.21h-5.84v18.216a11.256 11.256 0 0 1-3.059 0V14.21h-5.84a9.31 9.31 0 0 1 0-2.781c3.615-.139 11.4-.139 14.74 0a9.31 9.31 0 0 1-.001 2.781z" class="cls-2" transform="translate(-89.481 -11.151)"/>
                <path id="패스_16" d="M169.293 32.566H156.5V11.429c2.364-.139 10.429-.139 12.654 0a9.31 9.31 0 0 1 0 2.781c-1.53.139-8.2 0-9.456 0v6.118h8.343a10.272 10.272 0 0 1 0 2.92H159.7v6.4h9.595z" class="cls-2" transform="translate(-84.609 -11.151)"/>
                <path id="패스_17" d="M167.939 11.429a11.153 11.153 0 0 1 3.059 0c2.086 3.337 7.37 12.654 8.9 15.435-.139-2.225-.139-12.793 0-15.435a11.217 11.217 0 0 1 3.059 0v21.137a11.217 11.217 0 0 1-3.059 0c-1.808-2.92-7.37-12.654-9.039-15.713.139 2.642.139 13.349 0 15.713a11.269 11.269 0 0 1-3.059 0c.139-4.033.139-16.548.139-21.137z" class="cls-2" transform="translate(-80.196 -11.151)"/>
                <path id="패스_18" d="M195.269 14.21h-5.84v18.216a11.256 11.256 0 0 1-3.059 0V14.21h-5.84a9.309 9.309 0 0 1 0-2.781c3.615-.139 11.4-.139 14.74 0a9.311 9.311 0 0 1-.001 2.781z" class="cls-2" transform="translate(-75.265 -11.151)"/>
            </g>
            <g id="그룹_12" transform="translate(61.184 57.013)">
                <path id="패스_19" d="M73.2 60.333a10.369 10.369 0 0 1 1.947-2.364c1.669 1.391 3.754 2.642 5.84 2.642S84.6 59.5 84.6 57.552c0-1.808-.834-2.781-4.728-4.172-3.894-1.251-5.7-3.059-5.7-5.979 0-3.615 2.364-5.7 6.675-5.7a8.381 8.381 0 0 1 6.257 2.642 6.846 6.846 0 0 1-1.947 2.086 6.087 6.087 0 0 0-4.45-1.808c-2.086 0-3.337 1.112-3.337 2.642 0 1.669.834 2.642 4.311 3.754 4.172 1.391 5.979 3.059 5.979 6.4 0 3.754-2.364 6.118-6.953 6.118a11.622 11.622 0 0 1-7.507-3.202z" class="cls-2" transform="translate(-73.2 -41.7)"/>
                <path id="패스_20" d="M99.269 44.71h-5.84v18.216a11.257 11.257 0 0 1-3.059 0V44.71h-5.84a9.31 9.31 0 0 1 0-2.781c3.615-.139 11.4-.139 14.74 0l-.001 2.781z" class="cls-2" transform="translate(-68.816 -41.651)"/>
                <path id="패스_21" d="M95.8 52.546c0-7.648 3.059-10.846 8.76-10.846s8.76 3.337 8.76 10.846c0 7.787-3.2 10.846-8.76 10.846-5.701 0-8.76-3.198-8.76-10.846zm14.462 0c0-5.423-1.669-8.065-5.7-8.065-3.754 0-5.7 2.225-5.7 8.065s1.947 8.065 5.7 8.065c3.614-.139 5.7-2.225 5.7-8.065z" class="cls-2" transform="translate(-64.374 -41.7)"/>
                <path id="패스_22" d="M122.6 63.371c-1.669-2.364-3.894-5.84-5.562-8.621h-3.476v8.2a11.256 11.256 0 0 1-3.059 0V41.817c2.5 0 5.562-.139 7.648 0 4.45.139 6.4 2.642 6.4 6.4 0 3.337-1.53 5.284-4.172 6.118 1.669 2.5 3.754 5.7 4.728 7.509a6.77 6.77 0 0 1-2.507 1.527zm-5.145-11.541c2.781-.139 3.894-1.251 3.894-3.476s-1.112-3.476-3.754-3.476h-4.175v7.092c1.391-.141 2.92-.141 4.033-.141z" class="cls-2" transform="translate(-58.633 -41.678)"/>
                <path id="패스_23" d="M135.693 62.966H122.9V41.829c2.364-.139 10.429-.139 12.654 0a9.31 9.31 0 0 1 0 2.781c-1.53.139-8.2 0-9.456 0v6.118h8.343a10.272 10.272 0 0 1 0 2.92H126.1v6.4h9.595a10.261 10.261 0 0 1-.002 2.918z" class="cls-2" transform="translate(-53.79 -41.69)"/>
            </g>
            <g id="그룹_13" transform="translate(292.768 191.356)">
                <path id="패스_24" d="M239.8 153.123c0-10.012 4.172-14.323 11.82-14.323s11.82 4.311 11.82 14.323c0 10.29-4.45 14.323-11.82 14.323-7.648-.001-11.82-4.173-11.82-14.323zm18.355 0c0-6.4-1.808-9.456-6.536-9.456-4.311 0-6.536 2.5-6.536 9.456 0 7.092 2.225 9.456 6.536 9.456 4.172-.001 6.536-2.226 6.536-9.456z" class="cls-2" transform="translate(-239.8 -138.8)"/>
                <path id="패스_25" d="M277.584 148.017c0 6.118-3.476 9.039-9.039 9.178h-4.172v9.595a31.76 31.76 0 0 1-5.145 0c-.139-4.45-.139-24.056 0-27.672 3.059 0 6.953-.139 9.734 0 5.838.138 8.622 3.754 8.622 8.899zm-5.284.139c0-2.781-1.112-4.033-4.033-4.172h-3.893v8.343h3.893c2.921-.139 4.033-1.527 4.033-4.171z" class="cls-2" transform="translate(-232.253 -138.7)"/>
                <path id="패스_26" d="M292.321 166.8H274.8v-27.671c2.92-.139 14.74-.139 17.382 0a28.445 28.445 0 0 1 0 4.867c-1.251.139-10.568 0-11.959 0v6.4h10.568a28.445 28.445 0 0 1 0 4.867c-1.112 0-6.814.139-10.568 0v6.675h12.1a28.381 28.381 0 0 1-.002 4.862z" class="cls-2" transform="translate(-226.131 -138.712)"/>
                <path id="패스_27" d="M290 139.129a28.232 28.232 0 0 1 4.867 0c2.642 3.894 8.9 14.6 10.568 17.66-.139-2.5-.139-14.74 0-17.66a31.568 31.568 0 0 1 5.145 0V166.8a12.7 12.7 0 0 1-4.589 0c-2.086-3.2-8.9-14.6-10.846-18.216 0 3.476.139 15.852 0 18.216a21.222 21.222 0 0 1-5.145 0v-27.671z" class="cls-2" transform="translate(-220.195 -138.712)"/>
            </g>
            <g id="그룹_14" transform="translate(365.494 105.731)">
                <path id="패스_28" d="M301.834 103.837h-6.118a3.59 3.59 0 0 1-3.615-3.615V80.615A3.59 3.59 0 0 1 295.715 77h6.118a3.59 3.59 0 0 1 3.615 3.615v19.607a3.59 3.59 0 0 1-3.614 3.615z" class="cls-6" transform="translate(-292.1 -77)"/>
                <path id="패스_29" d="M327.1 131.434v-6.118a3.59 3.59 0 0 1 3.615-3.615h19.607a3.59 3.59 0 0 1 3.615 3.615v6.118a3.59 3.59 0 0 1-3.615 3.615h-19.607a3.681 3.681 0 0 1-3.615-3.615z" class="cls-6" transform="translate(-278.431 -59.543)"/>
                <path id="패스_30" d="M321.3 113.515l-4.311-4.311a3.694 3.694 0 0 1 0-5.145l13.766-13.766a3.694 3.694 0 0 1 5.145 0l4.311 4.311a3.694 3.694 0 0 1 0 5.145l-13.766 13.766a3.694 3.694 0 0 1-5.145 0z" class="cls-6" transform="translate(-282.786 -72.216)"/>
            </g>
        </g>
    </g>
</svg>
