<svg xmlns="http://www.w3.org/2000/svg" width="40" height="40" viewBox="0 0 40 40">
    <g>
        <path fill="#fff" d="M0 0H40V40H0z" transform="translate(-.455 -.455) translate(.455 .455)"/>
        <path fill="#46c6ed" d="M538.676 476.429a4.913 4.913 0 0 0-2.916-4.19c.2-.1.389-.214.58-.329a5 5 0 0 0 2.333-4.649 4.779 4.779 0 0 0-5.047-4.54 16.879 16.879 0 0 0-2.309.382c-.755.173-1.5.382-2.242.615s-1.468.493-2.187.8c-.358.152-.715.314-1.067.491-.1.053-.208.107-.311.162l-.031.017c-.236.126-.468.258-.7.408a4.574 4.574 0 0 0-.554.427 8.332 8.332 0 0 0-2.81 4.136 11.773 11.773 0 0 0-.537 5.164c.674 6.993 3.734 8.405 5.684 8.576a4.458 4.458 0 0 0 .928.053 10.5 10.5 0 0 0 1.171-.132c.385-.062.766-.139 1.144-.226.757-.173 1.5-.391 2.233-.637.244-.081.487-.167.731-.254l4.762.957-.784-2.867a5.032 5.032 0 0 0 1.922-4.365" transform="translate(-.455 -.455) translate(-509.347 -452.922)"/>
    </g>
</svg>
