<svg xmlns="http://www.w3.org/2000/svg" width="17" height="9" viewBox="0 0 17 9">
    <defs>
        <filter id="gncvnqa3ia">
            <feColorMatrix in="SourceGraphic" values="0 0 0 0 1.000000 0 0 0 0 1.000000 0 0 0 0 1.000000 0 0 0 1.000000 0"/>
        </filter>
    </defs>
    <g fill="none" fill-rule="evenodd">
        <g>
            <g>
                <g>
                    <g>
                        <g filter="url(#gncvnqa3ia)" transform="translate(-813 -804) translate(700 468) translate(0 140) translate(20 172) translate(93 17)">
                            <g>
                                <g>
                                    <path d="M0 0H16V8.615H0z" transform="translate(.308 7)"/>
                                    <path fill="gray" fill-rule="nonzero" d="M1.047 8.439c-.242.238-.632.235-.87-.007-.239-.243-.235-.632.007-.87L7.689.176c.243-.239.632-.235.87.007l7.264 7.384c.239.243.235.632-.007.87-.242.24-.632.236-.87-.006L8.114 1.486 1.047 8.439z" transform="translate(.308 7)"/>
                                </g>
                            </g>
                        </g>
                    </g>
                </g>
            </g>
        </g>
    </g>
</svg>
