<svg xmlns="http://www.w3.org/2000/svg" width="20" height="20" viewBox="0 0 20 20">
    <g fill="none" fill-rule="evenodd">
        <g fill="#FC5E7C">
            <g>
                <g>
                    <g>
                        <g>
                            <g>
                                <path d="M10 0c5.523 0 10 4.477 10 10s-4.477 10-10 10S0 15.523 0 10 4.477 0 10 0zm0 13.636c-.502 0-.91.407-.91.91 0 .502.408.909.91.909s.91-.407.91-.91c0-.502-.408-.909-.91-.909zm0-9.09c-.466 0-.85.35-.903.803l-.006.106v5.454c0 .502.407.91.909.91.466 0 .85-.352.903-.804l.006-.106V5.455c0-.503-.407-.91-.909-.91z" transform="translate(-1788 -1135) translate(1300 1066) translate(0 27) translate(0 26) translate(197) translate(291 16)"/>
                            </g>
                        </g>
                    </g>
                </g>
            </g>
        </g>
    </g>
</svg>
