<svg xmlns="http://www.w3.org/2000/svg" width="32" height="32" viewBox="0 0 32 32">
    <g fill="none" fill-rule="evenodd">
        <g>
            <g>
                <g>
                    <g>
                        <g>
                            <path d="M0 0H32V32H0z" transform="translate(-452 -4488) translate(0 4166) translate(372 291) translate(0 31) translate(80)"/>
                            <g fill="#CCC">
                                <path d="M9.999.164h.05l.377.002c1.478.01 6.018.067 7.313.414.856.23 1.531.904 1.76 1.76.375 1.399.412 4.163.416 4.702v.185c-.004.539-.041 3.303-.416 4.7-.229.858-.904 1.533-1.76 1.762-1.369.366-6.365.41-7.535.415h-.493c-1.17-.005-6.166-.049-7.534-.415-.857-.23-1.532-.904-1.76-1.761C.041 10.53.003 7.766 0 7.227v-.185c.004-.539.042-3.303.416-4.701.23-.857.904-1.532 1.761-1.76C3.471.232 8.012.174 9.489.165l.377-.002h.05zM7.966 4.147v5.975l5.174-2.988-5.174-2.987z" transform="translate(-452 -4488) translate(0 4166) translate(372 291) translate(0 31) translate(80) translate(6 9)"/>
                            </g>
                        </g>
                    </g>
                </g>
            </g>
        </g>
    </g>
</svg>
