<svg xmlns="http://www.w3.org/2000/svg" width="32" height="32" viewBox="0 0 32 32">
    <g fill="none" fill-rule="evenodd">
        <g>
            <g>
                <g>
                    <g>
                        <g>
                            <path d="M0 0H32V32H0z" transform="translate(-412 -4488) translate(0 4166) translate(372 291) translate(0 31) translate(40)"/>
                            <g fill="#CCC">
                                <path d="M5.722.06C4.686.106 3.978.272 3.359.515c-.64.251-1.184.588-1.725 1.134C1.093 2.197.76 2.745.511 3.392c-.24.625-.405 1.34-.452 2.387C.01 6.827 0 7.162 0 9.832s.011 3.006.059 4.054c.047 1.047.211 1.762.452 2.387.249.647.582 1.195 1.123 1.742.541.546 1.084.882 1.725 1.134.619.243 1.327.409 2.363.457 1.038.048 1.37.059 4.014.059s2.976-.011 4.014-.06c1.037-.047 1.744-.213 2.364-.456.64-.252 1.183-.588 1.724-1.134.541-.547.874-1.095 1.123-1.742.24-.625.405-1.34.453-2.387.047-1.048.058-1.383.058-4.054 0-2.67-.011-3.005-.058-4.053-.048-1.047-.212-1.762-.453-2.387-.249-.647-.582-1.195-1.123-1.742-.541-.546-1.084-.883-1.724-1.134-.62-.243-1.327-.41-2.364-.457C12.712.011 12.38 0 9.736 0S6.76.011 5.722.06zm7.948 1.769c.95.044 1.465.204 1.808.338.455.179.779.392 1.12.736.34.344.551.672.728 1.13.133.347.292.868.335 1.826.047 1.037.057 1.348.057 3.973 0 2.626-.01 2.937-.057 3.974-.043.958-.202 1.479-.335 1.825-.177.46-.388.787-.728 1.13-.341.345-.665.558-1.12.736-.343.135-.859.295-1.808.339-1.026.047-1.334.057-3.934.057s-2.908-.01-3.934-.057c-.95-.044-1.465-.204-1.808-.339-.454-.178-.779-.391-1.12-.735-.34-.344-.551-.672-.728-1.13-.133-.347-.292-.868-.335-1.826-.047-1.037-.057-1.348-.057-3.974 0-2.625.01-2.936.057-3.973.043-.958.202-1.479.335-1.825.177-.46.388-.787.729-1.131.34-.344.665-.557 1.119-.736.343-.134.859-.294 1.808-.338 1.026-.047 1.334-.057 3.934-.057s2.908.01 3.934.057z" transform="translate(-412 -4488) translate(0 4166) translate(372 291) translate(0 31) translate(40) translate(6 6)"/>
                                <path d="M9.562 12.936c-1.792 0-3.245-1.467-3.245-3.277S7.77 6.38 9.562 6.38s3.245 1.467 3.245 3.278c0 1.81-1.453 3.277-3.245 3.277m0-8.327c-2.761 0-5 2.261-5 5.05 0 2.788 2.239 5.049 5 5.049s5-2.26 5-5.05c0-2.788-2.239-5.049-5-5.049M14.76 5.59c-.646 0-1.17-.528-1.17-1.18 0-.652.524-1.18 1.17-1.18.645 0 1.168.528 1.168 1.18 0 .652-.523 1.18-1.169 1.18z" transform="translate(-412 -4488) translate(0 4166) translate(372 291) translate(0 31) translate(40) translate(6 6)"/>
                            </g>
                        </g>
                    </g>
                </g>
            </g>
        </g>
    </g>
</svg>
