<svg xmlns="http://www.w3.org/2000/svg" width="24" height="24" viewBox="0 0 24 24">
    <defs>
        <clipPath id="clip-path">
            <path id="Path" d="M1.207 5.5L5.854.854a.5.5 0 0 0-.708-.708l-5 5a.5.5 0 0 0 0 .707l5 5a.5.5 0 1 0 .707-.707z" class="cls-1" transform="translate(0 .5)"/>
        </clipPath>
        <style>
            .cls-1{fill:#191919}
        </style>
    </defs>
    <g id="right_slider_button" transform="rotate(180 375 1471.5)">
        <g id="그룹_216" transform="translate(-427)">
            <circle id="타원_9" cx="12" cy="12" r="12" fill="#f4f4f4" transform="translate(1153 2919)"/>
        </g>
        <g id="_03_ic_00_system_16_regular_ic_chevron_left_16" transform="translate(729 2923)">
            <g id="outline" transform="translate(5 2)">
                <path id="Path-2" d="M1.207 5.5L5.854.854a.5.5 0 0 0-.708-.708l-5 5a.5.5 0 0 0 0 .707l5 5a.5.5 0 1 0 .707-.707z" class="cls-1" transform="translate(0 .5)"/>
            </g>
        </g>
    </g>
</svg>
