<svg xmlns="http://www.w3.org/2000/svg" xmlns:xlink="http://www.w3.org/1999/xlink" width="20" height="20" viewBox="0 0 20 20">
    <defs>
        <path id="eqyihvpfva" d="M10 0c5.523 0 10 4.477 10 10s-4.477 10-10 10S0 15.523 0 10 4.477 0 10 0zm0 14c-.552 0-1 .448-1 1s.448 1 1 1 1-.448 1-1-.448-1-1-1zm0-9c-.552 0-1 .448-1 1v5c0 .552.448 1 1 1s1-.448 1-1V6c0-.552-.448-1-1-1z"/>
    </defs>
    <g fill="none" fill-rule="evenodd">
        <g>
            <g transform="translate(-716 -1176) translate(700 1158)">
                <rect width="520" height="56" fill="#E5F8FF" rx="8"/>
                <g transform="translate(16 18)">
                    <mask id="si6p83m0fb" fill="#fff">
                        <use xlink:href="#eqyihvpfva"/>
                    </mask>
                    <use fill="#FFF" xlink:href="#eqyihvpfva"/>
                    <g fill="#2FCDFB" mask="url(#si6p83m0fb)">
                        <path d="M0 0H24V24H0z" transform="translate(-2 -2)"/>
                    </g>
                </g>
            </g>
        </g>
    </g>
</svg>
