<svg xmlns="http://www.w3.org/2000/svg" width="58" height="25" viewBox="0 0 58 25">
    <g fill="none" fill-rule="evenodd">
        <g fill-rule="nonzero">
            <g>
                <path fill="#43C8EF" d="M21.825 16.115c-.166-2.126-1.522-3.973-3.5-4.77.235-.12.465-.24.695-.375 2.289-1.3 3.366-4.015 2.592-6.53C20.837 1.925 18.418.287 15.795.5c-.927.091-1.847.241-2.755.45-.903.2-1.795.433-2.675.7-.88.27-1.755.565-2.61.91-.43.175-.855.36-1.275.56l-.37.185h-.035c-.285.14-.56.29-.835.46-.23.153-.45.32-.66.5C2.992 5.452 1.819 7.109 1.225 9c-.666 1.875-.885 3.88-.64 5.855.805 7.96 4.46 9.565 6.785 9.755.367.06.739.08 1.11.065.475-.025.94-.085 1.4-.155.46-.07.915-.155 1.365-.255.905-.2 1.79-.45 2.67-.725l.87-.29 5.685 1.085-.935-3.26c1.569-1.147 2.435-3.022 2.29-4.96z" transform="translate(-372 -18) translate(372 18)"/>
                <path fill="#1B1C1C" d="M28.92 11.42c-.385.045-.667.384-.64.77.027.387.353.684.74.675h.1l9.04-1.27c-.09.905-.23 1.76-.34 2.38-.033.19.01.385.12.542.111.158.28.265.47.298.042.005.083.005.125 0 .35 0 .652-.25.715-.595.206-1.136.352-2.283.435-3.435.1-1.612.1-3.228 0-4.84-.026-.257-.185-.482-.42-.59C38.99 5.2 38.58 5.19 37.8 5.3l-8.895 1.25c-.4.026-.704.372-.678.772.027.4.373.704.773.678h.1l8.905-1.25h.035c.122 0 .225.093.235.215 0 .81.025 1.965-.03 3.115l-9.325 1.34zM41.38 16.3l-14 1.965c-.385.045-.667.384-.64.77.027.387.353.684.74.675h.1l14-1.965c.388-.065.653-.428.598-.818-.056-.39-.412-.663-.803-.617l.005-.01zM52.845 15.28c-1.665.605-5.565 1.23-7.115 1.46h-.07c-.104-.016-.185-.1-.195-.205V12l6-.845c.265-.026.493-.195.597-.44.103-.245.063-.527-.103-.735-.166-.207-.432-.307-.694-.26l-5.805.825V7.57c.008-.107.089-.194.195-.21h.115l5.68-.8c.265-.026.493-.195.597-.44.103-.245.063-.527-.103-.735-.166-.207-.432-.307-.694-.26L45.085 6c-.339.042-.645.223-.845.5-.183.263-.268.581-.24.9v9.2c0 .275 0 1.125.565 1.5.161.113.353.174.55.175.066.008.134.008.2 0 .555-.075 5.855-.835 8-1.625.36-.148.54-.555.405-.92-.134-.367-.534-.56-.905-.44l.03-.01zM56.55 3.75c-.197 0-.385.08-.522.221-.136.142-.21.332-.203.529v13.905c0 .4.325.725.725.725.4 0 .725-.325.725-.725V4.5c.007-.197-.067-.387-.203-.529-.137-.141-.325-.221-.522-.221z" transform="translate(-372 -18) translate(372 18)"/>
            </g>
        </g>
    </g>
</svg>
