<svg xmlns="http://www.w3.org/2000/svg" width="83" height="28" viewBox="0 0 83 28">
    <g fill="none" fill-rule="evenodd">
        <path fill="#C1C0C1" fill-rule="nonzero" d="M61.92 17.5V5.542a1.46 1.46 0 0 1 1.46-1.459h9.931a1.46 1.46 0 1 1 0 2.917h-8.47v4.083h7.302a1.46 1.46 0 1 1 0 2.917h-7.302v3.5c0 1.49.996 2.625 2.12 2.625h6.65a1.46 1.46 0 1 1 0 2.917h-6.65c-2.83 0-5.04-2.521-5.04-5.542zm19.57-14c.806 0 1.46.653 1.46 1.458v18.667a1.46 1.46 0 0 1-2.92 0V4.958A1.46 1.46 0 0 1 81.49 3.5zM56.832 5.99c.406 4.634-.187 8.336-1.836 11.091a1.462 1.462 0 0 1-2.003.504 1.457 1.457 0 0 1-.504-2C53.7 13.56 54.213 10.702 53.979 7H40.6a1.46 1.46 0 1 1 0-2.917h14.636c.49 0 1.505.16 1.597 1.908zm-14.48 5.093h7.593a1.46 1.46 0 1 1 0 2.917h-7.594a1.46 1.46 0 1 1 0-2.917zm-3.506 9.334h19.277a1.46 1.46 0 1 1 0 2.916H38.846a1.46 1.46 0 1 1 0-2.916z"/>
        <g fill="#C1C0C1">
            <path d="M7.286 26.64l12.65-12.694 6.63 6.654a4.28 4.28 0 0 1 1.246 3.02 4.263 4.263 0 0 1-4.255 4.272H4.277c1.09 0 2.178-.417 3.01-1.251z" opacity=".7"/>
            <path d="M20.014 13.946L7.302 26.64a4.267 4.267 0 0 1-3.025 1.25A4.27 4.27 0 0 1 0 23.622V4.27C0 2.491 1.09.966 2.64.324a4.283 4.283 0 0 1 4.662.927l12.712 12.695z"/>
            <path d="M7.302 1.251A4.267 4.267 0 0 0 4.277 0h19.377a4.274 4.274 0 0 1 4.277 4.271c0 1.133-.45 2.22-1.253 3.02l-6.664 6.655L7.302 1.25z" opacity=".7"/>
        </g>
        <path d="M0 0h83v28H0z"/>
    </g>
</svg>
