<svg xmlns="http://www.w3.org/2000/svg" xmlns:xlink="http://www.w3.org/1999/xlink" width="139" height="18" viewBox="0 0 139 18">
    <defs>
        <path id="a" d="M0 15.12h138.811V0H0z"/>
    </defs>
    <g fill="none" fill-rule="evenodd" opacity=".5">
        <path fill="#4F4C4D" d="M84.653 15.441h2.886v-3.947h-2.886zM131.831 15.441h2.884v-3.839h-2.884zM71.279.926v2.413h4.054V15.44h2.886V3.34h4.095V.926zM84.653 4.783h2.886V.925h-2.886z" opacity=".7"/>
        <g transform="translate(0 .244)">
            <path fill="#4F4C4D" d="M96.777 12.962c-2.281 0-3.763-1.903-3.763-5.062 0-3.118 1.637-5.001 3.821-5.001 1.092 0 1.93.51 2.651 1.216l1.522-1.844c-.937-.98-2.398-1.863-4.23-1.863-3.648 0-6.708 2.804-6.708 7.59 0 4.846 2.963 7.474 6.61 7.474 1.87 0 3.41-.745 4.6-2.138L99.76 11.53c-.78.844-1.754 1.433-2.982 1.433M115.279 15.197l-4.838-8.214h-3.949V6.98h-.006V.682H103.6v14.515h2.886v-4.079l1.891-2.432 3.724 6.511zM119.86 11.558V3.095h5.966V.682h-8.852v14.515h9.067v-2.432h-6.18zM134.716 9.833V3.095h4.095V.682h-11.036v2.413h4.056v6.738z" opacity=".7"/>
            <mask id="b" fill="#fff">
                <use xlink:href="#a"/>
            </mask>
            <path fill="#4F4C4D" d="M84.655 9.726h2.884v-3.66h-2.884zM107.7 5.459h3.113l3.686-4.776h-3.176zM121.375 8.882h3.553v-2.43h-3.553zM6.61 15.416c1.872 0 3.412-.745 4.6-2.138l-1.52-1.805c-.78.844-1.755 1.432-2.983 1.432-2.28 0-3.763-1.903-3.763-5.061 0-3.119 1.638-5.002 3.821-5.002 1.092 0 1.93.51 2.651 1.217l1.522-1.845C10.002 1.234 8.54.352 6.708.352 3.06.352 0 3.156 0 7.942c0 4.845 2.963 7.474 6.61 7.474M16.12 2.92h1.872c1.853 0 2.866.53 2.866 2.1 0 1.55-1.013 2.334-2.866 2.334H16.12V2.92zm0 6.73h2.009l2.964 5.492h3.216l-3.372-5.944c1.656-.647 2.748-2 2.748-4.178 0-3.335-2.398-4.394-5.42-4.394h-5.03v9.023h2.885zM29.086 5.439c.528-1.658 1.657-2.597 3.177-2.597 1.558 0 2.704.984 3.215 2.718a2.981 2.981 0 0 1 2.867-.565C37.494 2.03 35.24.35 32.263.35c-3.005 0-5.273 1.7-6.106 4.723a2.983 2.983 0 0 1 2.929.365M38.319 10.756a2.979 2.979 0 0 1-2.86-.589c-.52 1.72-1.658 2.738-3.196 2.738-1.5 0-2.62-.971-3.155-2.616a2.983 2.983 0 0 1-2.923.391c.854 2.99 3.106 4.736 6.078 4.736 2.947 0 5.186-1.716 6.056-4.66M52.944 7.996c-.201 1.42-.402 2.87-.603 4.34h-.097c-.312-1.57-.604-3.138-.916-4.629L49.651.626h-2.457l-1.677 7.081c-.31 1.51-.624 3.08-.916 4.63h-.077c-.216-1.55-.449-3.1-.663-4.63L42.71.626h-2.944l2.788 14.516h3.529l1.58-7.18c.233-1.138.428-2.256.623-3.354h.078c.175 1.098.39 2.216.624 3.354l1.618 7.18h3.588l1.315-7.146h-2.565zM59.068 9.895a5.16 5.16 0 0 1 2.846.853V2.94h.897c2.69 0 4.367 1.334 4.367 4.885 0 3.125-1.314 4.62-3.48 4.922.364.72.562 1.52.569 2.333 3.6-.403 5.855-2.817 5.855-7.255 0-4.904-2.73-7.2-7.135-7.2h-3.958v9.27h.04M28.758 7.555A1.496 1.496 0 0 0 27.3 6.37a1.496 1.496 0 0 0-1.49 1.457c0 .049.002.096.003.145.002.03.004.06.01.09.093.737.719 1.31 1.477 1.31.718 0 1.32-.514 1.461-1.196a8.647 8.647 0 0 1-.003-.622M38.894 7.687a1.523 1.523 0 0 0-.2-.582 1.489 1.489 0 0 0-1.279-.734c-.823 0-1.492.673-1.492 1.5 0 .829.67 1.502 1.492 1.502.54 0 1.012-.291 1.273-.726a1.494 1.494 0 0 0 .206-.96" mask="url(#b)" opacity=".7"/>
            <path fill="#4F4C4D" d="M13.235 15.142h2.885v-3.968h-2.885zM54.118.626l-.934 5.841h2.605l1.076-5.84zM62.752 15.126c0-.06-.002-.12-.005-.178 0-.02-.002-.04-.004-.059-.003-.04-.004-.078-.008-.117a1.34 1.34 0 0 0-.008-.07l-.013-.103a1.044 1.044 0 0 0-.065-.338c-.006-.026-.01-.053-.018-.079a4.699 4.699 0 0 0-.079-.26c-.006-.017-.01-.033-.017-.05a1.508 1.508 0 0 0-.04-.101.49.49 0 0 0-.019-.052l-.044-.102-.02-.046-.05-.104-.02-.038a6.328 6.328 0 0 0-.058-.11l-.011-.019a3.592 3.592 0 0 0-.332-.492h-.028v-.035a2.983 2.983 0 0 0-.14-.161l-.117-.124-.038-.035c-.034-.032-.067-.065-.1-.094l-.048-.042a3.315 3.315 0 0 0-.1-.082l-.052-.042a2.78 2.78 0 0 0-.26-.185 2.326 2.326 0 0 0-.173-.106c-.016-.009-.03-.018-.047-.026a2.42 2.42 0 0 0-.165-.086c-.002 0-.003-.002-.005-.003a3.157 3.157 0 0 0-.176-.08l-.047-.018a2.794 2.794 0 0 0-.198-.074l-.119-.039-.074-.02-.115-.031a7.931 7.931 0 0 0-.193-.041 3.654 3.654 0 0 0-.078-.015l-.122-.017-.076-.01a4.653 4.653 0 0 0-.134-.011l-.066-.005a3.77 3.77 0 0 0-.202-.006h-.038v3.721h3.721l.001-.015M32.345 6.732c-.663 0-1.2.539-1.2 1.206 0 .67.537 1.21 1.2 1.21.662 0 1.2-.54 1.2-1.21 0-.667-.538-1.206-1.2-1.206" mask="url(#b)" opacity=".7"/>
        </g>
    </g>
</svg>
