<svg xmlns="http://www.w3.org/2000/svg" width="36" height="40" viewBox="0 0 36 40">
    <path fill="#CCC" fill-rule="evenodd" d="M35.972 25.83c-.285-3.625-2.658-6.601-5.873-7.887.394-.196.785-.4 1.17-.62 3.047-1.734 4.991-5.076 4.703-8.75C35.57 3.46 31.019-.367 25.806.027c-1.589.12-3.126.402-4.652.72-1.523.327-3.025.718-4.512 1.157-1.488.44-2.96.93-4.404 1.506-.723.286-1.44.592-2.147.924-.21.1-.418.201-.627.304l-.062.032c-.474.236-.943.486-1.402.767-.393.241-.766.51-1.118.803-4.544 3.4-5.659 7.785-5.659 7.785h.001C.214 16.665-.258 19.865.142 23.75c1.356 13.165 7.524 15.823 11.452 16.142.607.091 1.232.127 1.87.1.802-.034 1.584-.134 2.36-.25.776-.118 1.543-.262 2.304-.428 1.524-.325 3.02-.738 4.5-1.2.492-.153.981-.314 1.47-.48l9.595 1.803-1.579-5.397c2.554-1.836 4.118-4.886 3.858-8.208"/>
</svg>
