<svg xmlns="http://www.w3.org/2000/svg" width="46" height="24" viewBox="0 0 46 24">
    <g fill="#1D1D1B" fill-rule="evenodd">
        <path d="M3.194 11.418c-.59.083-1.002.629-.92 1.22.077.539.54.929 1.069.929.05 0 .1-.004.151-.011l13.456-1.891c-.14 1.348-.342 2.621-.507 3.545-.104.586.287 1.147.874 1.252.064.011.128.017.19.017.514 0 .969-.368 1.062-.891.228-1.276.524-3.199.648-5.108.192-2.977.116-6.225.02-7.206-.04-.396-.287-.72-.624-.876-.412-.236-1.02-.25-2.183-.083L3.194 4.175c-.59.083-1.002.629-.92 1.22.077.539.54.929 1.069.929.05 0 .1-.004.151-.01L16.746 4.45l.05-.002c.184 0 .334.14.354.319h.001l.002.033v.008l.001.022h.002c.032 1.2.034 2.926-.046 4.631L3.194 11.418zM21.74 18.679L.93 21.603c-.59.083-1.002.63-.92 1.22.076.54.539.93 1.068.93.05 0 .101-.004.152-.011l20.811-2.926c.59-.082 1.002-.628.919-1.219-.083-.59-.63-1.002-1.22-.918M38.805 17.157c-2.481.904-8.288 1.832-10.588 2.177v-.003c-.016.002-.03.003-.046.002H28.145l-.034-.005c-.155-.025-.276-.151-.295-.31l-.002.002-.004-.064V12.29l8.927-1.255c.59-.083 1.002-.63.919-1.22-.083-.59-.63-1.002-1.22-.918l-8.626 1.212V5.761v-.016c0-.023.002-.045.004-.064l.002.001c.018-.158.139-.284.295-.31l.106-.015.06-.008 8.46-1.189c.59-.083 1.002-.629.919-1.22-.083-.59-.63-1-1.22-.918l-9.184 1.29c-.668.095-1.05.447-1.253.726-.381.525-.376 1.126-.349 1.397v13.687c0 .415 0 1.68.842 2.26.27.186.56.256.818.256.106 0 .207-.012.3-.032.823-.116 8.713-1.247 11.934-2.42.56-.204.849-.824.645-1.384-.204-.56-.824-.85-1.384-.645M44.316 0c-.596 0-1.08.483-1.08 1.08v20.734c0 .597.484 1.08 1.08 1.08.596 0 1.08-.483 1.08-1.08V1.08c0-.597-.484-1.08-1.08-1.08"/>
        <path d="M18.949 4.768s.008.111.008.156.067-.186.067-.186l-.075.03z"/>
    </g>
</svg>
