<svg xmlns="http://www.w3.org/2000/svg" width="83" height="28" viewBox="0 0 83 28">
    <g fill="none" fill-rule="evenodd">
        <path fill="#4D4D4D" fill-rule="nonzero" d="M61.833 17.5V5.542c0-.806.653-1.459 1.459-1.459h9.916a1.458 1.458 0 1 1 0 2.917H64.75v4.083h7.292a1.458 1.458 0 0 1 0 2.917H64.75v3.5c0 1.49.994 2.625 2.117 2.625h6.64a1.458 1.458 0 0 1 0 2.917h-6.64c-2.826 0-5.034-2.521-5.034-5.542zm19.542-14c.805 0 1.458.653 1.458 1.458v18.667a1.458 1.458 0 1 1-2.916 0V4.958c0-.805.653-1.458 1.458-1.458zM56.752 5.99c.405 4.634-.186 8.336-1.834 11.091a1.458 1.458 0 0 1-2.503-1.496c1.21-2.025 1.722-4.883 1.488-8.585H40.542a1.458 1.458 0 1 1 0-2.917h14.615c.49 0 1.503.16 1.595 1.908zm-14.46 5.093h7.583a1.458 1.458 0 0 1 0 2.917h-7.583a1.458 1.458 0 1 1 0-2.917zm-3.5 9.334h19.25a1.458 1.458 0 1 1 0 2.916h-19.25a1.458 1.458 0 1 1 0-2.916z"/>
        <g fill="#43C9F0">
            <path d="M7.276 26.64l12.631-12.694 6.621 6.654a4.282 4.282 0 0 1 1.245 3.02c0 2.36-1.902 4.272-4.25 4.272H4.271a4.226 4.226 0 0 0 3.005-1.251z" opacity=".7"/>
            <path d="M19.986 13.946L7.291 26.64a4.258 4.258 0 0 1-3.02 1.25 4.258 4.258 0 0 1-3.02-1.25A4.271 4.271 0 0 1 0 23.62V4.27a4.272 4.272 0 0 1 7.291-3.02l12.695 12.695z"/>
            <path d="M7.291 1.251A4.258 4.258 0 0 0 4.271 0h19.35a4.271 4.271 0 0 1 3.02 7.291l-6.655 6.655L7.291 1.25z" opacity=".7"/>
        </g>
    </g>
</svg>
