<svg xmlns="http://www.w3.org/2000/svg" width="18" height="28" viewBox="0 0 18 28">
    <path fill="#CCC" fill-rule="evenodd" d="M3.256 18.88c0-1.535-.005-3.07.005-4.603.002-.259-.065-.34-.302-.33-.439.02-.878-.001-1.318.01-.177.005-.243-.05-.241-.254a171.7 171.7 0 0 0 .001-2.873c-.002-.184.05-.245.22-.24.45.01.9-.014 1.347.01.26.014.314-.087.309-.35a52.638 52.638 0 0 1-.002-2.187c.018-.89.237-1.72.724-2.444.615-.916 1.49-1.335 2.5-1.384 1.036-.05 2.075-.023 3.113-.035.145-.002.188.055.187.208-.004.968-.005 1.937.001 2.905.001.172-.05.225-.205.222-.5-.008-.999-.004-1.498-.002-.664.002-1.062.374-1.103 1.091-.034.575-.01 1.153-.022 1.73-.004.205.108.191.232.19.759 0 1.518.009 2.276-.005.223-.004.297.051.271.307a140.3 140.3 0 0 0-.253 2.89c-.017.218-.108.26-.288.256a75.685 75.685 0 0 0-1.796-.002c-.43.002-.389-.07-.389.41-.002 3.002-.005 6.006.007 9.009 0 .317-.074.396-.362.39a74.082 74.082 0 0 0-3.084 0c-.29.007-.337-.1-.335-.382.011-1.512.005-3.025.005-4.537"/>
</svg>
