<svg xmlns="http://www.w3.org/2000/svg" width="28" height="28" viewBox="0 0 28 28">
    <g fill="none" fill-rule="evenodd">
        <g fill="#CCC">
            <g>
                <g>
                    <g>
                        <g>
                            <g>
                                <path d="M11.045.18h.07l.31.002c.683.004 2.018.018 3.431.064l.532.018c1.69.064 3.387.176 4.124.374.943.252 1.685.994 1.937 1.937.415 1.548.454 4.62.458 5.183v.18c-.004.562-.043 3.635-.458 5.183-.252.942-.994 1.685-1.937 1.937-1.514.405-7.068.451-8.31.457h-.496c-1.243-.006-6.797-.052-8.311-.457-.943-.252-1.685-.995-1.937-1.937C.043 11.573.004 8.5 0 7.937v-.179c.004-.562.043-3.635.458-5.183C.71 1.632 1.452.89 2.395.638 3.055.461 4.482.353 5.986.286l.533-.022c1.6-.06 3.195-.077 3.963-.082l.31-.001h.07zM8.763 4.562v6.572l5.691-3.286-5.691-3.286z" transform="translate(-571 -490) translate(475 362) translate(10 100) translate(0 28) translate(86) translate(3 6)"/>
                            </g>
                        </g>
                    </g>
                </g>
            </g>
        </g>
    </g>
</svg>
