<svg xmlns="http://www.w3.org/2000/svg" width="28" height="28" viewBox="0 0 28 28">
    <g fill="#CCC" fill-rule="evenodd">
        <path d="M9.58 3.068c-1.192.055-2.005.246-2.718.526A5.483 5.483 0 0 0 4.88 4.898 5.549 5.549 0 0 0 3.588 6.9c-.277.719-.466 1.54-.52 2.744C3.012 10.851 3 11.236 3 14.307c0 3.071.013 3.456.067 4.662.055 1.204.244 2.026.52 2.745a5.548 5.548 0 0 0 1.292 2.003 5.484 5.484 0 0 0 1.983 1.304c.713.28 1.526.47 2.718.526 1.194.055 1.576.068 4.616.068 3.041 0 3.422-.013 4.617-.068 1.191-.055 2.005-.246 2.718-.526a5.483 5.483 0 0 0 1.983-1.304 5.548 5.548 0 0 0 1.291-2.003c.277-.72.466-1.541.52-2.745.055-1.206.068-1.59.068-4.662 0-3.07-.013-3.456-.067-4.662-.055-1.203-.244-2.025-.52-2.744a5.549 5.549 0 0 0-1.292-2.003 5.482 5.482 0 0 0-1.983-1.304c-.713-.28-1.527-.471-2.718-.526C17.618 3.013 17.237 3 14.196 3c-3.04 0-3.422.013-4.616.068zm9.14 2.035c1.092.05 1.685.235 2.08.39.522.205.895.45 1.287.845.392.396.635.773.838 1.3.153.399.335.998.385 2.1.054 1.193.066 1.55.066 4.57 0 3.019-.012 3.376-.066 4.568-.05 1.103-.232 1.702-.385 2.1a3.508 3.508 0 0 1-.838 1.3c-.392.396-.765.64-1.287.846-.395.155-.988.34-2.08.39-1.18.054-1.534.065-4.524.065s-3.343-.011-4.524-.066c-1.092-.05-1.684-.234-2.079-.389a3.466 3.466 0 0 1-1.287-.846 3.507 3.507 0 0 1-.838-1.3c-.153-.398-.336-.997-.385-2.1-.054-1.192-.066-1.55-.066-4.569s.012-3.376.066-4.569c.05-1.102.232-1.701.385-2.1.203-.527.446-.904.838-1.3.391-.395.764-.64 1.287-.845.395-.155.987-.34 2.08-.39 1.18-.054 1.534-.066 4.523-.066 2.99 0 3.344.012 4.525.066z"/>
        <path d="M13.996 17.876c-2.06 0-3.732-1.687-3.732-3.769 0-2.081 1.671-3.769 3.732-3.769 2.062 0 3.733 1.688 3.733 3.77 0 2.08-1.671 3.768-3.733 3.768m0-9.575c-3.175 0-5.75 2.6-5.75 5.806 0 3.207 2.575 5.807 5.75 5.807 3.176 0 5.75-2.6 5.75-5.807 0-3.207-2.574-5.806-5.75-5.806M19.973 9.428a1.35 1.35 0 0 1-1.343-1.357c0-.749.601-1.356 1.343-1.356a1.35 1.35 0 0 1 1.344 1.356 1.35 1.35 0 0 1-1.344 1.357z"/>
    </g>
</svg>
