<svg xmlns="http://www.w3.org/2000/svg" width="16" height="16" viewBox="0 0 16 16">
    <g fill="#FEFEFE" fill-rule="evenodd">
        <path d="M4.205 3.067v7.556h2.41v1.432l.078-.078c.407-.424.814-.846 1.218-1.273a.247.247 0 0 1 .197-.085c.843.003 1.685.004 2.527-.001a.283.283 0 0 0 .183-.08c.525-.54 1.044-1.088 1.568-1.63a.268.268 0 0 0 .08-.207c-.002-1.834-.002-3.668-.002-5.503v-.131H4.205zM5.25 13.823v-1.415H2.507c-.003-.059-.007-.105-.007-.15l.001-7.987c0-.077.014-.157.037-.23.202-.643.41-1.284.61-1.927.027-.085.06-.114.148-.114 3.357.003 6.714.002 10.07.002h.113v.149c0 2.294 0 4.589.002 6.883a.3.3 0 0 1-.092.229c-.973 1.014-1.945 2.029-2.915 3.046a.274.274 0 0 1-.22.096c-.59-.005-1.181 0-1.772-.005a.336.336 0 0 0-.275.116c-.39.416-.785.826-1.182 1.235-.037.04-.097.078-.146.078-.528.006-1.056.003-1.584.003-.012 0-.024-.005-.045-.009z"/>
        <path d="M6.967 8.437h1.018V5.243H6.967zM9.725 8.441h1V5.243h-1z"/>
    </g>
</svg>
