<svg xmlns="http://www.w3.org/2000/svg" width="16" height="16" viewBox="0 0 16 16">
    <path fill="#FFF" fill-rule="evenodd" d="M6.746 9.764V6.17l3.182 1.755-3.182 1.84zm7.05-4.632c-.227-.965-.655-1.336-1.444-1.47-.454-.071-2.635-.162-4.366-.162h.008c-1.731 0-3.912.09-4.367.161-.788.135-1.216.506-1.444 1.471C2.106 5.457 2 7.234 2 7.912v.15c0 .678.106 2.455.183 2.78.228.965.656 1.336 1.444 1.47.455.071 2.636.162 4.367.162h-.008c1.73 0 3.912-.09 4.366-.161.789-.135 1.217-.506 1.445-1.471.077-.325.183-2.102.183-2.78v-.15c0-.678-.106-2.455-.183-2.78z"/>
</svg>
