<svg xmlns="http://www.w3.org/2000/svg" width="16" height="16" viewBox="0 0 16 16">
    <g fill="none" fill-rule="evenodd">
        <path fill="#B3B3A6" d="M9.906 2.014c0 .16.02.332.046.49H8.475v7.555c0 .349-.035.659-.104.931-.602 1.362-2.304 1.184-2.775.25.7.45 1.852.33 2.325-.74.069-.27.104-.582.104-.93V2.014h1.881zm1.005 2.285c.38.312.905.543 1.629.587v.434c-.8-.152-1.308-.56-1.63-1.021zm-6.756 8.3c-2.41-2.15-.852-6.934 2.853-6.332v.443c-3.129-.15-4.506 3.686-2.853 5.888z"/>
        <path fill="#FFFFFC" d="M10.356 2.503v.01c.001.175.05 2.705 2.634 2.862 0 2.354.001 0 .001 1.955-.194.012-1.7-.1-2.637-.96l-.003 3.806c.023 1.723-.91 3.413-2.658 3.753-.49.096-.93.106-1.67-.06-4.262-1.31-2.846-7.808 1.434-7.112 0 2.097.001-.001.001 2.097-1.768-.267-2.36 1.245-1.89 2.327.428.986 2.189 1.2 2.803-.191.07-.272.104-.582.104-.93V2.502h1.881z"/>
        <path fill="#CCCCC9" d="M10.356 2.503v.01c0 .103.018 1.016.555 1.786-.647-.532-.877-1.3-.96-1.796h.405zM12.54 5.32c.14.027.29.046.45.055 0 2.354.001 0 .001 1.955-.194.012-1.7-.1-2.637-.96l-.003 3.806c.023 1.723-.91 3.413-2.658 3.753-.49.096-.93.106-1.67-.06-.833-.256-1.448-.71-1.868-1.27.374.334.845.605 1.419.782.739.165 1.18.154 1.67.059 1.746-.34 2.68-2.03 2.657-3.753l.002-3.806c.938.86 2.444.972 2.639.96 0-1.816-.002.084-.002-1.52zM7.008 6.71c.145.007.296.022.45.047v2.097c-1.768-.267-2.36 1.245-1.89 2.327.01.02.018.04.028.058-.21-.135-.38-.32-.477-.547-.47-1.083.121-2.594 1.89-2.327 0-1.923-.001-.323-.001-1.655z"/>
    </g>
</svg>
