<svg xmlns="http://www.w3.org/2000/svg" width="80" height="80" viewBox="0 0 80 80">
    <path fill="#43C9F0" fill-rule="nonzero" d="M35 44.245a8 8 0 1 1 10 0V44c0-.69-.14-1.347-.392-1.945a6.138 6.138 0 1 0-9.215 0A4.984 4.984 0 0 0 35 44v.245zm0 6.836c-5.263-2.013-9-7.11-9-13.081 0-7.732 6.268-14 14-14s14 6.268 14 14c0 5.97-3.737 11.068-9 13.08v-2.016c4.21-1.906 7.138-6.143 7.138-11.064 0-6.704-5.434-12.138-12.138-12.138S27.862 31.296 27.862 38c0 4.921 2.929 9.158 7.138 11.064v2.017zm0 6.289C26.374 55.15 20 47.32 20 38c0-11.046 8.954-20 20-20s20 8.954 20 20c0 9.32-6.374 17.15-15 19.37v-1.93c7.586-2.17 13.138-9.157 13.138-17.44 0-10.017-8.12-18.138-18.138-18.138-10.017 0-18.138 8.12-18.138 18.138 0 8.283 5.552 15.27 13.138 17.44v1.93zM40 43a1 1 0 0 1 1 1v18a1 1 0 0 1-2 0V44a1 1 0 0 1 1-1zm0-2a3 3 0 1 1 0-6 3 3 0 0 1 0 6z"/>
</svg>
