<svg xmlns="http://www.w3.org/2000/svg" width="80" height="80" viewBox="0 0 80 80">
    <path fill="#43C9F0" fill-rule="evenodd" d="M34.983 47.057V32.675l12.729 7.02-12.729 7.362zm28.205-18.528c-.913-3.86-2.626-5.347-5.778-5.884C55.592 22.363 46.867 22 39.944 22h.03c-6.923 0-15.648.363-17.466.645-3.152.537-4.865 2.024-5.777 5.884C16.424 29.827 16 36.937 16 39.65v.594c0 2.714.424 9.824.73 11.122.913 3.86 2.626 5.347 5.778 5.884 1.818.282 10.543.645 17.467.645h-.031c6.923 0 15.648-.363 17.466-.645 3.152-.537 4.865-2.024 5.778-5.884.306-1.298.73-8.408.73-11.122v-.594c0-2.714-.424-9.824-.73-11.122z"/>
</svg>
