<svg xmlns="http://www.w3.org/2000/svg" width="80" height="80" viewBox="0 0 80 80">
    <path fill="#43C9F0" fill-rule="evenodd" d="M44.266 55l-3.294 4.82a1 1 0 0 1-1.639.019L35.866 55H20a4 4 0 0 1-4-4V24a4 4 0 0 1 4-4h40a4 4 0 0 1 4 4v27a4 4 0 0 1-4 4H44.266zM25.274 43h1.862v-4.326c0-.98-.168-2.422-.266-3.402h.056l.826 2.436 1.61 4.354h1.19l1.596-4.354.84-2.436h.056c-.098.98-.252 2.422-.252 3.402V43h1.89V32.64h-2.296l-1.722 4.844c-.224.644-.406 1.33-.63 2.002h-.07c-.21-.672-.406-1.358-.63-2.002L27.57 32.64h-2.296V43zm16.184.196c1.344 0 2.45-.532 3.304-1.526l-1.092-1.288c-.56.602-1.26 1.022-2.142 1.022-1.638 0-2.702-1.358-2.702-3.612 0-2.226 1.176-3.57 2.744-3.57.784 0 1.386.364 1.904.868l1.092-1.316c-.672-.7-1.722-1.33-3.038-1.33-2.618 0-4.816 2.002-4.816 5.418 0 3.458 2.128 5.334 4.746 5.334zm4.97-.196h1.96v-4.158c0-1.19-.154-2.492-.252-3.612h.07l1.05 2.226L52.252 43h2.1V32.64h-1.96v4.13c0 1.176.154 2.548.266 3.626h-.07l-1.036-2.24-3.01-5.516h-2.114V43z"/>
</svg>
