<svg xmlns="http://www.w3.org/2000/svg" width="80" height="80" viewBox="0 0 80 80">
    <g fill="#43C9F0" fill-rule="evenodd">
        <path d="M29.007 50.006l.986-.166A4.296 4.296 0 0 1 35 54.077c0 1.041-.214 1.988-.614 2.807-.399.82-.984 1.51-1.726 2.04-.741.53-1.64.898-2.667 1.07l-.986.166A4.296 4.296 0 0 1 24 55.923c0-1.041.214-1.988.614-2.807.399-.82.984-1.51 1.726-2.04.741-.53 1.64-.898 2.667-1.07zM51.007 48.006l.986-.166A4.296 4.296 0 0 1 57 52.077c0 1.041-.214 1.988-.614 2.807-.399.82-.984 1.51-1.726 2.04-.741.53-1.64.898-2.667 1.07l-.986.166A4.296 4.296 0 0 1 46 53.923c0-1.041.214-1.988.614-2.807.399-.82.984-1.51 1.726-2.04.741-.53 1.64-.898 2.667-1.07z"/>
        <path d="M54 28.367l-19.032 2.329v23.367h-3v-31L57 20v33h-3V28.367z"/>
    </g>
</svg>
